solid ASCII
  facet normal 9.992094e-01 3.786565e-14 -3.975652e-02
    outer loop
      vertex   -3.161719e+02 -1.104357e+01 -1.412240e+01
      vertex   -3.161719e+02 -1.404357e+01 -1.412240e+01
      vertex   -3.161803e+02 -1.104357e+01 -1.433294e+01
    endloop
  endfacet
  facet normal 9.992094e-01 3.786565e-14 -3.975652e-02
    outer loop
      vertex   -3.161803e+02 -1.104357e+01 -1.433294e+01
      vertex   -3.161719e+02 -1.404357e+01 -1.412240e+01
      vertex   -3.161803e+02 -1.404357e+01 -1.433294e+01
    endloop
  endfacet
  facet normal 9.992094e-01 3.786565e-14 3.975652e-02
    outer loop
      vertex   -3.161803e+02 -1.104357e+01 -1.433294e+01
      vertex   -3.161803e+02 -1.404357e+01 -1.433294e+01
      vertex   -3.161719e+02 -1.104357e+01 -1.454349e+01
    endloop
  endfacet
  facet normal 9.992094e-01 3.786565e-14 3.975652e-02
    outer loop
      vertex   -3.161719e+02 -1.104357e+01 -1.454349e+01
      vertex   -3.161803e+02 -1.404357e+01 -1.433294e+01
      vertex   -3.161719e+02 -1.404357e+01 -1.454349e+01
    endloop
  endfacet
  facet normal 9.928921e-01 3.762625e-14 1.190182e-01
    outer loop
      vertex   -3.161719e+02 -1.104357e+01 -1.454349e+01
      vertex   -3.161719e+02 -1.404357e+01 -1.454349e+01
      vertex   -3.161468e+02 -1.104357e+01 -1.475270e+01
    endloop
  endfacet
  facet normal 9.928921e-01 3.762625e-14 1.190182e-01
    outer loop
      vertex   -3.161468e+02 -1.104357e+01 -1.475270e+01
      vertex   -3.161719e+02 -1.404357e+01 -1.454349e+01
      vertex   -3.161468e+02 -1.404357e+01 -1.475270e+01
    endloop
  endfacet
  facet normal 9.802974e-01 3.714897e-14 1.975274e-01
    outer loop
      vertex   -3.161468e+02 -1.104357e+01 -1.475270e+01
      vertex   -3.161468e+02 -1.404357e+01 -1.475270e+01
      vertex   -3.161052e+02 -1.104357e+01 -1.495926e+01
    endloop
  endfacet
  facet normal 9.802974e-01 3.714897e-14 1.975274e-01
    outer loop
      vertex   -3.161052e+02 -1.104357e+01 -1.495926e+01
      vertex   -3.161468e+02 -1.404357e+01 -1.475270e+01
      vertex   -3.161052e+02 -1.404357e+01 -1.495926e+01
    endloop
  endfacet
  facet normal 9.615049e-01 3.643682e-14 2.747878e-01
    outer loop
      vertex   -3.161052e+02 -1.104357e+01 -1.495926e+01
      vertex   -3.161052e+02 -1.404357e+01 -1.495926e+01
      vertex   -3.160473e+02 -1.104357e+01 -1.516185e+01
    endloop
  endfacet
  facet normal 9.615049e-01 5.449252e-14 2.747878e-01
    outer loop
      vertex   -3.160473e+02 -1.104357e+01 -1.516185e+01
      vertex   -3.161052e+02 -1.404357e+01 -1.495926e+01
      vertex   -3.160473e+02 -1.404357e+01 -1.516185e+01
    endloop
  endfacet
  facet normal 9.366335e-01 5.303402e-14 3.503108e-01
    outer loop
      vertex   -3.160473e+02 -1.104357e+01 -1.516185e+01
      vertex   -3.160473e+02 -1.404357e+01 -1.516185e+01
      vertex   -3.159735e+02 -1.104357e+01 -1.535921e+01
    endloop
  endfacet
  facet normal 9.366335e-01 3.528687e-14 3.503108e-01
    outer loop
      vertex   -3.159735e+02 -1.104357e+01 -1.535921e+01
      vertex   -3.160473e+02 -1.404357e+01 -1.516185e+01
      vertex   -3.159735e+02 -1.404357e+01 -1.535921e+01
    endloop
  endfacet
  facet normal 9.058404e-01 3.407654e-14 4.236191e-01
    outer loop
      vertex   -3.159735e+02 -1.104357e+01 -1.535921e+01
      vertex   -3.159735e+02 -1.404357e+01 -1.535921e+01
      vertex   -3.158843e+02 -1.104357e+01 -1.555008e+01
    endloop
  endfacet
  facet normal 9.058404e-01 3.432738e-14 4.236191e-01
    outer loop
      vertex   -3.158843e+02 -1.104357e+01 -1.555008e+01
      vertex   -3.159735e+02 -1.404357e+01 -1.535921e+01
      vertex   -3.158843e+02 -1.404357e+01 -1.555008e+01
    endloop
  endfacet
  facet normal 8.693203e-01 3.294342e-14 4.942492e-01
    outer loop
      vertex   -3.158843e+02 -1.104357e+01 -1.555008e+01
      vertex   -3.158843e+02 -1.404357e+01 -1.555008e+01
      vertex   -3.157801e+02 -1.104357e+01 -1.573326e+01
    endloop
  endfacet
  facet normal 8.693203e-01 3.294342e-14 4.942492e-01
    outer loop
      vertex   -3.157801e+02 -1.104357e+01 -1.573326e+01
      vertex   -3.158843e+02 -1.404357e+01 -1.555008e+01
      vertex   -3.157801e+02 -1.404357e+01 -1.573326e+01
    endloop
  endfacet
  facet normal 8.273040e-01 3.135119e-14 5.617544e-01
    outer loop
      vertex   -3.157801e+02 -1.104357e+01 -1.573326e+01
      vertex   -3.157801e+02 -1.404357e+01 -1.573326e+01
      vertex   -3.156617e+02 -1.104357e+01 -1.590758e+01
    endloop
  endfacet
  facet normal 8.273040e-01 3.101857e-14 5.617544e-01
    outer loop
      vertex   -3.156617e+02 -1.104357e+01 -1.590758e+01
      vertex   -3.157801e+02 -1.404357e+01 -1.573326e+01
      vertex   -3.156617e+02 -1.404357e+01 -1.590758e+01
    endloop
  endfacet
  facet normal 7.800573e-01 2.919026e-14 6.257081e-01
    outer loop
      vertex   -3.156617e+02 -1.104357e+01 -1.590758e+01
      vertex   -3.156617e+02 -1.404357e+01 -1.590758e+01
      vertex   -3.155299e+02 -1.104357e+01 -1.607194e+01
    endloop
  endfacet
  facet normal 7.800573e-01 1.478037e-14 6.257081e-01
    outer loop
      vertex   -3.155299e+02 -1.104357e+01 -1.607194e+01
      vertex   -3.156617e+02 -1.404357e+01 -1.590758e+01
      vertex   -3.155299e+02 -1.404357e+01 -1.607194e+01
    endloop
  endfacet
  facet normal 7.278788e-01 1.379171e-14 6.857058e-01
    outer loop
      vertex   -3.155299e+02 -1.104357e+01 -1.607194e+01
      vertex   -3.155299e+02 -1.404357e+01 -1.607194e+01
      vertex   -3.153854e+02 -1.104357e+01 -1.622531e+01
    endloop
  endfacet
  facet normal 7.278788e-01 2.758341e-14 6.857058e-01
    outer loop
      vertex   -3.153854e+02 -1.104357e+01 -1.622531e+01
      vertex   -3.155299e+02 -1.404357e+01 -1.607194e+01
      vertex   -3.153854e+02 -1.404357e+01 -1.622531e+01
    endloop
  endfacet
  facet normal 6.710984e-01 2.543169e-14 7.413683e-01
    outer loop
      vertex   -3.153854e+02 -1.104357e+01 -1.622531e+01
      vertex   -3.153854e+02 -1.404357e+01 -1.622531e+01
      vertex   -3.152292e+02 -1.104357e+01 -1.636672e+01
    endloop
  endfacet
  facet normal 6.710984e-01 2.543169e-14 7.413683e-01
    outer loop
      vertex   -3.152292e+02 -1.104357e+01 -1.636672e+01
      vertex   -3.153854e+02 -1.404357e+01 -1.622531e+01
      vertex   -3.152292e+02 -1.404357e+01 -1.636672e+01
    endloop
  endfacet
  facet normal 6.100751e-01 2.311917e-14 7.923436e-01
    outer loop
      vertex   -3.152292e+02 -1.104357e+01 -1.636672e+01
      vertex   -3.152292e+02 -1.404357e+01 -1.636672e+01
      vertex   -3.150622e+02 -1.104357e+01 -1.649527e+01
    endloop
  endfacet
  facet normal 6.100751e-01 2.311917e-14 7.923436e-01
    outer loop
      vertex   -3.150622e+02 -1.104357e+01 -1.649527e+01
      vertex   -3.152292e+02 -1.404357e+01 -1.636672e+01
      vertex   -3.150622e+02 -1.404357e+01 -1.649527e+01
    endloop
  endfacet
  facet normal 5.451948e-01 2.066049e-14 8.383094e-01
    outer loop
      vertex   -3.150622e+02 -1.104357e+01 -1.649527e+01
      vertex   -3.150622e+02 -1.404357e+01 -1.649527e+01
      vertex   -3.148856e+02 -1.104357e+01 -1.661015e+01
    endloop
  endfacet
  facet normal 5.451948e-01 2.066049e-14 8.383094e-01
    outer loop
      vertex   -3.148856e+02 -1.104357e+01 -1.661015e+01
      vertex   -3.150622e+02 -1.404357e+01 -1.649527e+01
      vertex   -3.148856e+02 -1.404357e+01 -1.661015e+01
    endloop
  endfacet
  facet normal 4.768675e-01 1.807119e-14 8.789752e-01
    outer loop
      vertex   -3.148856e+02 -1.104357e+01 -1.661015e+01
      vertex   -3.148856e+02 -1.404357e+01 -1.661015e+01
      vertex   -3.147004e+02 -1.104357e+01 -1.671063e+01
    endloop
  endfacet
  facet normal 4.768675e-01 1.703027e-14 8.789752e-01
    outer loop
      vertex   -3.147004e+02 -1.104357e+01 -1.671063e+01
      vertex   -3.148856e+02 -1.404357e+01 -1.661015e+01
      vertex   -3.147004e+02 -1.404357e+01 -1.671063e+01
    endloop
  endfacet
  facet normal 4.055253e-01 1.428514e-14 9.140838e-01
    outer loop
      vertex   -3.147004e+02 -1.104357e+01 -1.671063e+01
      vertex   -3.147004e+02 -1.404357e+01 -1.671063e+01
      vertex   -3.145078e+02 -1.104357e+01 -1.679607e+01
    endloop
  endfacet
  facet normal 4.055253e-01 7.683815e-15 9.140838e-01
    outer loop
      vertex   -3.145078e+02 -1.104357e+01 -1.679607e+01
      vertex   -3.147004e+02 -1.404357e+01 -1.671063e+01
      vertex   -3.145078e+02 -1.404357e+01 -1.679607e+01
    endloop
  endfacet
  facet normal 3.316193e-01 6.283458e-15 9.434133e-01
    outer loop
      vertex   -3.145078e+02 -1.104357e+01 -1.679607e+01
      vertex   -3.145078e+02 -1.404357e+01 -1.679607e+01
      vertex   -3.143090e+02 -1.104357e+01 -1.686595e+01
    endloop
  endfacet
  facet normal 3.316193e-01 1.256692e-14 9.434133e-01
    outer loop
      vertex   -3.143090e+02 -1.104357e+01 -1.686595e+01
      vertex   -3.145078e+02 -1.404357e+01 -1.679607e+01
      vertex   -3.143090e+02 -1.404357e+01 -1.686595e+01
    endloop
  endfacet
  facet normal 2.556166e-01 9.686749e-15 9.667782e-01
    outer loop
      vertex   -3.143090e+02 -1.104357e+01 -1.686595e+01
      vertex   -3.143090e+02 -1.404357e+01 -1.686595e+01
      vertex   -3.141053e+02 -1.104357e+01 -1.691981e+01
    endloop
  endfacet
  facet normal 2.556166e-01 9.686749e-15 9.667782e-01
    outer loop
      vertex   -3.141053e+02 -1.104357e+01 -1.691981e+01
      vertex   -3.143090e+02 -1.404357e+01 -1.686595e+01
      vertex   -3.141053e+02 -1.404357e+01 -1.691981e+01
    endloop
  endfacet
  facet normal 1.779979e-01 6.745339e-15 9.840309e-01
    outer loop
      vertex   -3.141053e+02 -1.104357e+01 -1.691981e+01
      vertex   -3.141053e+02 -1.404357e+01 -1.691981e+01
      vertex   -3.138980e+02 -1.104357e+01 -1.695732e+01
    endloop
  endfacet
  facet normal 1.779979e-01 6.745339e-15 9.840309e-01
    outer loop
      vertex   -3.138980e+02 -1.104357e+01 -1.695732e+01
      vertex   -3.141053e+02 -1.404357e+01 -1.691981e+01
      vertex   -3.138980e+02 -1.404357e+01 -1.695732e+01
    endloop
  endfacet
  facet normal 9.925380e-02 3.761284e-15 9.950622e-01
    outer loop
      vertex   -3.138980e+02 -1.104357e+01 -1.695732e+01
      vertex   -3.138980e+02 -1.404357e+01 -1.695732e+01
      vertex   -3.136883e+02 -1.104357e+01 -1.697823e+01
    endloop
  endfacet
  facet normal 9.925380e-02 3.761284e-15 9.950622e-01
    outer loop
      vertex   -3.136883e+02 -1.104357e+01 -1.697823e+01
      vertex   -3.138980e+02 -1.404357e+01 -1.695732e+01
      vertex   -3.136883e+02 -1.404357e+01 -1.697823e+01
    endloop
  endfacet
  facet normal 1.988219e-02 7.534477e-16 9.998023e-01
    outer loop
      vertex   -3.136883e+02 -1.104357e+01 -1.697823e+01
      vertex   -3.136883e+02 -1.404357e+01 -1.697823e+01
      vertex   -3.134776e+02 -1.104357e+01 -1.698242e+01
    endloop
  endfacet
  facet normal 1.988219e-02 7.534477e-16 9.998023e-01
    outer loop
      vertex   -3.134776e+02 -1.104357e+01 -1.698242e+01
      vertex   -3.136883e+02 -1.404357e+01 -1.697823e+01
      vertex   -3.134776e+02 -1.404357e+01 -1.698242e+01
    endloop
  endfacet
  facet normal -5.961513e-02 -2.259152e-15 9.982214e-01
    outer loop
      vertex   -3.134776e+02 -1.104357e+01 -1.698242e+01
      vertex   -3.134776e+02 -1.404357e+01 -1.698242e+01
      vertex   -3.132673e+02 -1.104357e+01 -1.696986e+01
    endloop
  endfacet
  facet normal -5.961513e-02 -2.259152e-15 9.982214e-01
    outer loop
      vertex   -3.132673e+02 -1.104357e+01 -1.696986e+01
      vertex   -3.134776e+02 -1.404357e+01 -1.698242e+01
      vertex   -3.132673e+02 -1.404357e+01 -1.696986e+01
    endloop
  endfacet
  facet normal -1.387355e-01 -5.257468e-15 9.903295e-01
    outer loop
      vertex   -3.132673e+02 -1.104357e+01 -1.696986e+01
      vertex   -3.132673e+02 -1.404357e+01 -1.696986e+01
      vertex   -3.130586e+02 -1.104357e+01 -1.694063e+01
    endloop
  endfacet
  facet normal -1.387355e-01 -5.257468e-15 9.903295e-01
    outer loop
      vertex   -3.130586e+02 -1.104357e+01 -1.694063e+01
      vertex   -3.132673e+02 -1.404357e+01 -1.696986e+01
      vertex   -3.130586e+02 -1.404357e+01 -1.694063e+01
    endloop
  endfacet
  facet normal -2.169788e-01 -8.222545e-15 9.761763e-01
    outer loop
      vertex   -3.130586e+02 -1.104357e+01 -1.694063e+01
      vertex   -3.130586e+02 -1.404357e+01 -1.694063e+01
      vertex   -3.128529e+02 -1.104357e+01 -1.689491e+01
    endloop
  endfacet
  facet normal -2.169788e-01 -8.222545e-15 9.761763e-01
    outer loop
      vertex   -3.128529e+02 -1.104357e+01 -1.689491e+01
      vertex   -3.130586e+02 -1.404357e+01 -1.694063e+01
      vertex   -3.128529e+02 -1.404357e+01 -1.689491e+01
    endloop
  endfacet
  facet normal -2.938503e-01 -1.113564e-14 9.558515e-01
    outer loop
      vertex   -3.128529e+02 -1.104357e+01 -1.689491e+01
      vertex   -3.128529e+02 -1.404357e+01 -1.689491e+01
      vertex   -3.126515e+02 -1.104357e+01 -1.683299e+01
    endloop
  endfacet
  facet normal -2.938503e-01 -1.000368e-14 9.558515e-01
    outer loop
      vertex   -3.126515e+02 -1.104357e+01 -1.683299e+01
      vertex   -3.128529e+02 -1.404357e+01 -1.689491e+01
      vertex   -3.126515e+02 -1.404357e+01 -1.683299e+01
    endloop
  endfacet
  facet normal -3.688639e-01 -1.287759e-14 9.294834e-01
    outer loop
      vertex   -3.126515e+02 -1.104357e+01 -1.683299e+01
      vertex   -3.126515e+02 -1.404357e+01 -1.683299e+01
      vertex   -3.124557e+02 -1.104357e+01 -1.675527e+01
    endloop
  endfacet
  facet normal -3.688639e-01 -1.397832e-14 9.294834e-01
    outer loop
      vertex   -3.124557e+02 -1.104357e+01 -1.675527e+01
      vertex   -3.126515e+02 -1.404357e+01 -1.683299e+01
      vertex   -3.124557e+02 -1.404357e+01 -1.675527e+01
    endloop
  endfacet
  facet normal -4.415455e-01 -1.673264e-14 8.972389e-01
    outer loop
      vertex   -3.124557e+02 -1.104357e+01 -1.675527e+01
      vertex   -3.124557e+02 -1.404357e+01 -1.675527e+01
      vertex   -3.122666e+02 -1.104357e+01 -1.666223e+01
    endloop
  endfacet
  facet normal -4.415455e-01 -1.673264e-14 8.972389e-01
    outer loop
      vertex   -3.122666e+02 -1.104357e+01 -1.666223e+01
      vertex   -3.124557e+02 -1.404357e+01 -1.675527e+01
      vertex   -3.122666e+02 -1.404357e+01 -1.666223e+01
    endloop
  endfacet
  facet normal -5.114355e-01 -1.938116e-14 8.593217e-01
    outer loop
      vertex   -3.122666e+02 -1.104357e+01 -1.666223e+01
      vertex   -3.122666e+02 -1.404357e+01 -1.666223e+01
      vertex   -3.120855e+02 -1.104357e+01 -1.655446e+01
    endloop
  endfacet
  facet normal -5.114355e-01 -1.938116e-14 8.593217e-01
    outer loop
      vertex   -3.120855e+02 -1.104357e+01 -1.655446e+01
      vertex   -3.122666e+02 -1.404357e+01 -1.666223e+01
      vertex   -3.120855e+02 -1.404357e+01 -1.655446e+01
    endloop
  endfacet
  facet normal -5.780920e-01 -2.190715e-14 8.159716e-01
    outer loop
      vertex   -3.120855e+02 -1.104357e+01 -1.655446e+01
      vertex   -3.120855e+02 -1.404357e+01 -1.655446e+01
      vertex   -3.119136e+02 -1.104357e+01 -1.643265e+01
    endloop
  endfacet
  facet normal -5.780920e-01 -2.190715e-14 8.159716e-01
    outer loop
      vertex   -3.119136e+02 -1.104357e+01 -1.643265e+01
      vertex   -3.120855e+02 -1.404357e+01 -1.655446e+01
      vertex   -3.119136e+02 -1.404357e+01 -1.643265e+01
    endloop
  endfacet
  facet normal -6.410936e-01 -2.429464e-14 7.674627e-01
    outer loop
      vertex   -3.119136e+02 -1.104357e+01 -1.643265e+01
      vertex   -3.119136e+02 -1.404357e+01 -1.643265e+01
      vertex   -3.117519e+02 -1.104357e+01 -1.629757e+01
    endloop
  endfacet
  facet normal -6.410936e-01 -2.429464e-14 7.674627e-01
    outer loop
      vertex   -3.117519e+02 -1.104357e+01 -1.629757e+01
      vertex   -3.119136e+02 -1.404357e+01 -1.643265e+01
      vertex   -3.117519e+02 -1.404357e+01 -1.629757e+01
    endloop
  endfacet
  facet normal -7.000421e-01 -2.652852e-14 7.141016e-01
    outer loop
      vertex   -3.117519e+02 -1.104357e+01 -1.629757e+01
      vertex   -3.117519e+02 -1.404357e+01 -1.629757e+01
      vertex   -3.116014e+02 -1.104357e+01 -1.615006e+01
    endloop
  endfacet
  facet normal -7.000421e-01 -2.652852e-14 7.141016e-01
    outer loop
      vertex   -3.116014e+02 -1.104357e+01 -1.615006e+01
      vertex   -3.117519e+02 -1.404357e+01 -1.629757e+01
      vertex   -3.116014e+02 -1.404357e+01 -1.615006e+01
    endloop
  endfacet
  facet normal -7.545646e-01 -2.859469e-14 6.562257e-01
    outer loop
      vertex   -3.116014e+02 -1.104357e+01 -1.615006e+01
      vertex   -3.116014e+02 -1.404357e+01 -1.615006e+01
      vertex   -3.114632e+02 -1.104357e+01 -1.599107e+01
    endloop
  endfacet
  facet normal -7.545646e-01 -2.820612e-14 6.562257e-01
    outer loop
      vertex   -3.114632e+02 -1.104357e+01 -1.599107e+01
      vertex   -3.116014e+02 -1.404357e+01 -1.615006e+01
      vertex   -3.114632e+02 -1.404357e+01 -1.599107e+01
    endloop
  endfacet
  facet normal -8.043166e-01 -3.012823e-14 5.942010e-01
    outer loop
      vertex   -3.114632e+02 -1.104357e+01 -1.599107e+01
      vertex   -3.114632e+02 -1.404357e+01 -1.599107e+01
      vertex   -3.113379e+02 -1.104357e+01 -1.582159e+01
    endloop
  endfacet
  facet normal -8.043166e-01 -3.048007e-14 5.942010e-01
    outer loop
      vertex   -3.113379e+02 -1.104357e+01 -1.582159e+01
      vertex   -3.114632e+02 -1.404357e+01 -1.599107e+01
      vertex   -3.113379e+02 -1.404357e+01 -1.582159e+01
    endloop
  endfacet
  facet normal -8.489834e-01 -3.217274e-14 5.284196e-01
    outer loop
      vertex   -3.113379e+02 -1.104357e+01 -1.582159e+01
      vertex   -3.113379e+02 -1.404357e+01 -1.582159e+01
      vertex   -3.112266e+02 -1.104357e+01 -1.564270e+01
    endloop
  endfacet
  facet normal -8.489834e-01 -3.217274e-14 5.284196e-01
    outer loop
      vertex   -3.112266e+02 -1.104357e+01 -1.564270e+01
      vertex   -3.113379e+02 -1.404357e+01 -1.582159e+01
      vertex   -3.112266e+02 -1.404357e+01 -1.564270e+01
    endloop
  endfacet
  facet normal -8.882826e-01 -3.366201e-14 4.592973e-01
    outer loop
      vertex   -3.112266e+02 -1.104357e+01 -1.564270e+01
      vertex   -3.112266e+02 -1.404357e+01 -1.564270e+01
      vertex   -3.111298e+02 -1.104357e+01 -1.545553e+01
    endloop
  endfacet
  facet normal -8.882826e-01 -3.339006e-14 4.592973e-01
    outer loop
      vertex   -3.111298e+02 -1.104357e+01 -1.545553e+01
      vertex   -3.112266e+02 -1.404357e+01 -1.564270e+01
      vertex   -3.111298e+02 -1.404357e+01 -1.545553e+01
    endloop
  endfacet
  facet normal -9.219659e-01 -3.470915e-14 3.872712e-01
    outer loop
      vertex   -3.111298e+02 -1.104357e+01 -1.545553e+01
      vertex   -3.111298e+02 -1.404357e+01 -1.545553e+01
      vertex   -3.110482e+02 -1.104357e+01 -1.526127e+01
    endloop
  endfacet
  facet normal -9.219659e-01 -3.493846e-14 3.872712e-01
    outer loop
      vertex   -3.110482e+02 -1.104357e+01 -1.526127e+01
      vertex   -3.111298e+02 -1.404357e+01 -1.545553e+01
      vertex   -3.110482e+02 -1.404357e+01 -1.526127e+01
    endloop
  endfacet
  facet normal -9.498201e-01 -3.599402e-14 3.127966e-01
    outer loop
      vertex   -3.110482e+02 -1.104357e+01 -1.526127e+01
      vertex   -3.110482e+02 -1.404357e+01 -1.526127e+01
      vertex   -3.109823e+02 -1.104357e+01 -1.506113e+01
    endloop
  endfacet
  facet normal -9.498201e-01 -3.599402e-14 3.127966e-01
    outer loop
      vertex   -3.109823e+02 -1.104357e+01 -1.506113e+01
      vertex   -3.110482e+02 -1.404357e+01 -1.526127e+01
      vertex   -3.109823e+02 -1.404357e+01 -1.506113e+01
    endloop
  endfacet
  facet normal -9.716693e-01 -3.682200e-14 2.363444e-01
    outer loop
      vertex   -3.109823e+02 -1.104357e+01 -1.506113e+01
      vertex   -3.109823e+02 -1.404357e+01 -1.506113e+01
      vertex   -3.109325e+02 -1.104357e+01 -1.485639e+01
    endloop
  endfacet
  facet normal -9.716693e-01 -3.668206e-14 2.363444e-01
    outer loop
      vertex   -3.109325e+02 -1.104357e+01 -1.485639e+01
      vertex   -3.109823e+02 -1.404357e+01 -1.506113e+01
      vertex   -3.109325e+02 -1.404357e+01 -1.485639e+01
    endloop
  endfacet
  facet normal -9.873753e-01 -3.732340e-14 1.583980e-01
    outer loop
      vertex   -3.109325e+02 -1.104357e+01 -1.485639e+01
      vertex   -3.109325e+02 -1.404357e+01 -1.485639e+01
      vertex   -3.108991e+02 -1.104357e+01 -1.464834e+01
    endloop
  endfacet
  facet normal -9.873753e-01 -3.722961e-14 1.583980e-01
    outer loop
      vertex   -3.108991e+02 -1.104357e+01 -1.464834e+01
      vertex   -3.109325e+02 -1.404357e+01 -1.485639e+01
      vertex   -3.108991e+02 -1.404357e+01 -1.464834e+01
    endloop
  endfacet
  facet normal -9.968388e-01 -3.768173e-14 7.945017e-02
    outer loop
      vertex   -3.108991e+02 -1.104357e+01 -1.464834e+01
      vertex   -3.108991e+02 -1.404357e+01 -1.464834e+01
      vertex   -3.108824e+02 -1.104357e+01 -1.443830e+01
    endloop
  endfacet
  facet normal -9.968388e-01 -3.772877e-14 7.945017e-02
    outer loop
      vertex   -3.108824e+02 -1.104357e+01 -1.443830e+01
      vertex   -3.108991e+02 -1.404357e+01 -1.464834e+01
      vertex   -3.108824e+02 -1.404357e+01 -1.443830e+01
    endloop
  endfacet
  facet normal -1.000000e+00 -3.789561e-14 0.000000e+00
    outer loop
      vertex   -3.108824e+02 -1.104357e+01 -1.443830e+01
      vertex   -3.108824e+02 -1.404357e+01 -1.443830e+01
      vertex   -3.108824e+02 -1.104357e+01 -1.422759e+01
    endloop
  endfacet
  facet normal -1.000000e+00 -3.789561e-14 0.000000e+00
    outer loop
      vertex   -3.108824e+02 -1.104357e+01 -1.422759e+01
      vertex   -3.108824e+02 -1.404357e+01 -1.443830e+01
      vertex   -3.108824e+02 -1.404357e+01 -1.422759e+01
    endloop
  endfacet
  facet normal -9.968388e-01 -3.782286e-14 -7.945017e-02
    outer loop
      vertex   -3.108824e+02 -1.104357e+01 -1.422759e+01
      vertex   -3.108824e+02 -1.404357e+01 -1.422759e+01
      vertex   -3.108991e+02 -1.104357e+01 -1.401755e+01
    endloop
  endfacet
  facet normal -9.968388e-01 -3.782286e-14 -7.945017e-02
    outer loop
      vertex   -3.108991e+02 -1.104357e+01 -1.401755e+01
      vertex   -3.108824e+02 -1.404357e+01 -1.422759e+01
      vertex   -3.108991e+02 -1.404357e+01 -1.401755e+01
    endloop
  endfacet
  facet normal -9.873753e-01 -3.751098e-14 -1.583980e-01
    outer loop
      vertex   -3.108991e+02 -1.104357e+01 -1.401755e+01
      vertex   -3.108991e+02 -1.404357e+01 -1.401755e+01
      vertex   -3.109325e+02 -1.104357e+01 -1.380950e+01
    endloop
  endfacet
  facet normal -9.873753e-01 -3.760477e-14 -1.583980e-01
    outer loop
      vertex   -3.109325e+02 -1.104357e+01 -1.380950e+01
      vertex   -3.108991e+02 -1.404357e+01 -1.401755e+01
      vertex   -3.109325e+02 -1.404357e+01 -1.380950e+01
    endloop
  endfacet
  facet normal -9.716693e-01 -3.710189e-14 -2.363444e-01
    outer loop
      vertex   -3.109325e+02 -1.104357e+01 -1.380950e+01
      vertex   -3.109325e+02 -1.404357e+01 -1.380950e+01
      vertex   -3.109823e+02 -1.104357e+01 -1.360476e+01
    endloop
  endfacet
  facet normal -9.716693e-01 -3.682200e-14 -2.363444e-01
    outer loop
      vertex   -3.109823e+02 -1.104357e+01 -1.360476e+01
      vertex   -3.109325e+02 -1.404357e+01 -1.380950e+01
      vertex   -3.109823e+02 -1.404357e+01 -1.360476e+01
    endloop
  endfacet
  facet normal -9.498201e-01 -3.599402e-14 -3.127966e-01
    outer loop
      vertex   -3.109823e+02 -1.104357e+01 -1.360476e+01
      vertex   -3.109823e+02 -1.404357e+01 -1.360476e+01
      vertex   -3.110482e+02 -1.104357e+01 -1.340462e+01
    endloop
  endfacet
  facet normal -9.498201e-01 -3.599402e-14 -3.127966e-01
    outer loop
      vertex   -3.110482e+02 -1.104357e+01 -1.340462e+01
      vertex   -3.109823e+02 -1.404357e+01 -1.360476e+01
      vertex   -3.110482e+02 -1.404357e+01 -1.340462e+01
    endloop
  endfacet
  facet normal -9.219659e-01 -3.493846e-14 -3.872712e-01
    outer loop
      vertex   -3.110482e+02 -1.104357e+01 -1.340462e+01
      vertex   -3.110482e+02 -1.404357e+01 -1.340462e+01
      vertex   -3.111298e+02 -1.104357e+01 -1.321035e+01
    endloop
  endfacet
  facet normal -9.219659e-01 -3.516777e-14 -3.872712e-01
    outer loop
      vertex   -3.111298e+02 -1.104357e+01 -1.321035e+01
      vertex   -3.110482e+02 -1.404357e+01 -1.340462e+01
      vertex   -3.111298e+02 -1.404357e+01 -1.321035e+01
    endloop
  endfacet
  facet normal -8.882826e-01 -3.393397e-14 -4.592973e-01
    outer loop
      vertex   -3.111298e+02 -1.104357e+01 -1.321035e+01
      vertex   -3.111298e+02 -1.404357e+01 -1.321035e+01
      vertex   -3.112266e+02 -1.104357e+01 -1.302318e+01
    endloop
  endfacet
  facet normal -8.882826e-01 -3.366201e-14 -4.592973e-01
    outer loop
      vertex   -3.112266e+02 -1.104357e+01 -1.302318e+01
      vertex   -3.111298e+02 -1.404357e+01 -1.321035e+01
      vertex   -3.112266e+02 -1.404357e+01 -1.302318e+01
    endloop
  endfacet
  facet normal -8.489834e-01 -3.217274e-14 -5.284196e-01
    outer loop
      vertex   -3.112266e+02 -1.104357e+01 -1.302318e+01
      vertex   -3.112266e+02 -1.404357e+01 -1.302318e+01
      vertex   -3.113379e+02 -1.104357e+01 -1.284429e+01
    endloop
  endfacet
  facet normal -8.489834e-01 -3.217274e-14 -5.284196e-01
    outer loop
      vertex   -3.113379e+02 -1.104357e+01 -1.284429e+01
      vertex   -3.112266e+02 -1.404357e+01 -1.302318e+01
      vertex   -3.113379e+02 -1.404357e+01 -1.284429e+01
    endloop
  endfacet
  facet normal -8.043166e-01 -3.048007e-14 -5.942010e-01
    outer loop
      vertex   -3.113379e+02 -1.104357e+01 -1.284429e+01
      vertex   -3.113379e+02 -1.404357e+01 -1.284429e+01
      vertex   -3.114632e+02 -1.104357e+01 -1.267482e+01
    endloop
  endfacet
  facet normal -8.043166e-01 -3.118374e-14 -5.942010e-01
    outer loop
      vertex   -3.114632e+02 -1.104357e+01 -1.267482e+01
      vertex   -3.113379e+02 -1.404357e+01 -1.284429e+01
      vertex   -3.114632e+02 -1.404357e+01 -1.267482e+01
    endloop
  endfacet
  facet normal -7.545646e-01 -2.937182e-14 -6.562257e-01
    outer loop
      vertex   -3.114632e+02 -1.104357e+01 -1.267482e+01
      vertex   -3.114632e+02 -1.404357e+01 -1.267482e+01
      vertex   -3.116014e+02 -1.104357e+01 -1.251582e+01
    endloop
  endfacet
  facet normal -7.545646e-01 -2.859469e-14 -6.562257e-01
    outer loop
      vertex   -3.116014e+02 -1.104357e+01 -1.251582e+01
      vertex   -3.114632e+02 -1.404357e+01 -1.267482e+01
      vertex   -3.116014e+02 -1.404357e+01 -1.251582e+01
    endloop
  endfacet
  facet normal -7.000421e-01 -2.652852e-14 -7.141016e-01
    outer loop
      vertex   -3.116014e+02 -1.104357e+01 -1.251582e+01
      vertex   -3.116014e+02 -1.404357e+01 -1.251582e+01
      vertex   -3.117519e+02 -1.104357e+01 -1.236832e+01
    endloop
  endfacet
  facet normal -7.000421e-01 -2.652852e-14 -7.141016e-01
    outer loop
      vertex   -3.117519e+02 -1.104357e+01 -1.236832e+01
      vertex   -3.116014e+02 -1.404357e+01 -1.251582e+01
      vertex   -3.117519e+02 -1.404357e+01 -1.236832e+01
    endloop
  endfacet
  facet normal -6.410936e-01 -2.429464e-14 -7.674627e-01
    outer loop
      vertex   -3.117519e+02 -1.104357e+01 -1.236832e+01
      vertex   -3.117519e+02 -1.404357e+01 -1.236832e+01
      vertex   -3.119136e+02 -1.104357e+01 -1.223323e+01
    endloop
  endfacet
  facet normal -6.410936e-01 -2.474907e-14 -7.674627e-01
    outer loop
      vertex   -3.119136e+02 -1.104357e+01 -1.223323e+01
      vertex   -3.117519e+02 -1.404357e+01 -1.236832e+01
      vertex   -3.119136e+02 -1.404357e+01 -1.223323e+01
    endloop
  endfacet
  facet normal -5.780920e-01 -2.239030e-14 -8.159716e-01
    outer loop
      vertex   -3.119136e+02 -1.104357e+01 -1.223323e+01
      vertex   -3.119136e+02 -1.404357e+01 -1.223323e+01
      vertex   -3.120855e+02 -1.104357e+01 -1.211142e+01
    endloop
  endfacet
  facet normal -5.780920e-01 -2.190715e-14 -8.159716e-01
    outer loop
      vertex   -3.120855e+02 -1.104357e+01 -1.211142e+01
      vertex   -3.119136e+02 -1.404357e+01 -1.223323e+01
      vertex   -3.120855e+02 -1.404357e+01 -1.211142e+01
    endloop
  endfacet
  facet normal -5.114355e-01 -1.938116e-14 -8.593217e-01
    outer loop
      vertex   -3.120855e+02 -1.104357e+01 -1.211142e+01
      vertex   -3.120855e+02 -1.404357e+01 -1.211142e+01
      vertex   -3.122666e+02 -1.104357e+01 -1.200366e+01
    endloop
  endfacet
  facet normal -5.114355e-01 -1.938116e-14 -8.593217e-01
    outer loop
      vertex   -3.122666e+02 -1.104357e+01 -1.200366e+01
      vertex   -3.120855e+02 -1.404357e+01 -1.211142e+01
      vertex   -3.122666e+02 -1.404357e+01 -1.200366e+01
    endloop
  endfacet
  facet normal -4.415455e-01 -1.673264e-14 -8.972389e-01
    outer loop
      vertex   -3.122666e+02 -1.104357e+01 -1.200366e+01
      vertex   -3.122666e+02 -1.404357e+01 -1.200366e+01
      vertex   -3.124557e+02 -1.104357e+01 -1.191062e+01
    endloop
  endfacet
  facet normal -4.415455e-01 -1.726391e-14 -8.972389e-01
    outer loop
      vertex   -3.124557e+02 -1.104357e+01 -1.191062e+01
      vertex   -3.122666e+02 -1.404357e+01 -1.200366e+01
      vertex   -3.124557e+02 -1.404357e+01 -1.191062e+01
    endloop
  endfacet
  facet normal -3.688639e-01 -1.452869e-14 -9.294834e-01
    outer loop
      vertex   -3.124557e+02 -1.104357e+01 -1.191062e+01
      vertex   -3.124557e+02 -1.404357e+01 -1.191062e+01
      vertex   -3.126515e+02 -1.104357e+01 -1.183290e+01
    endloop
  endfacet
  facet normal -3.688639e-01 -1.452869e-14 -9.294834e-01
    outer loop
      vertex   -3.126515e+02 -1.104357e+01 -1.183290e+01
      vertex   -3.124557e+02 -1.404357e+01 -1.191062e+01
      vertex   -3.126515e+02 -1.404357e+01 -1.183290e+01
    endloop
  endfacet
  facet normal -2.938503e-01 -1.170161e-14 -9.558515e-01
    outer loop
      vertex   -3.126515e+02 -1.104357e+01 -1.183290e+01
      vertex   -3.126515e+02 -1.404357e+01 -1.183290e+01
      vertex   -3.128529e+02 -1.104357e+01 -1.177098e+01
    endloop
  endfacet
  facet normal -2.938503e-01 -1.113564e-14 -9.558515e-01
    outer loop
      vertex   -3.128529e+02 -1.104357e+01 -1.177098e+01
      vertex   -3.126515e+02 -1.404357e+01 -1.183290e+01
      vertex   -3.128529e+02 -1.404357e+01 -1.177098e+01
    endloop
  endfacet
  facet normal -2.169788e-01 -8.222545e-15 -9.761763e-01
    outer loop
      vertex   -3.128529e+02 -1.104357e+01 -1.177098e+01
      vertex   -3.128529e+02 -1.404357e+01 -1.177098e+01
      vertex   -3.130586e+02 -1.104357e+01 -1.172526e+01
    endloop
  endfacet
  facet normal -2.169788e-01 -8.222545e-15 -9.761763e-01
    outer loop
      vertex   -3.130586e+02 -1.104357e+01 -1.172526e+01
      vertex   -3.128529e+02 -1.404357e+01 -1.177098e+01
      vertex   -3.130586e+02 -1.404357e+01 -1.172526e+01
    endloop
  endfacet
  facet normal -1.387355e-01 -5.257468e-15 -9.903295e-01
    outer loop
      vertex   -3.130586e+02 -1.104357e+01 -1.172526e+01
      vertex   -3.130586e+02 -1.404357e+01 -1.172526e+01
      vertex   -3.132673e+02 -1.104357e+01 -1.169603e+01
    endloop
  endfacet
  facet normal -1.387355e-01 -5.257468e-15 -9.903295e-01
    outer loop
      vertex   -3.132673e+02 -1.104357e+01 -1.169603e+01
      vertex   -3.130586e+02 -1.404357e+01 -1.172526e+01
      vertex   -3.132673e+02 -1.404357e+01 -1.169603e+01
    endloop
  endfacet
  facet normal -5.961513e-02 -2.259152e-15 -9.982214e-01
    outer loop
      vertex   -3.132673e+02 -1.104357e+01 -1.169603e+01
      vertex   -3.132673e+02 -1.404357e+01 -1.169603e+01
      vertex   -3.134776e+02 -1.104357e+01 -1.168347e+01
    endloop
  endfacet
  facet normal -5.961513e-02 -2.259152e-15 -9.982214e-01
    outer loop
      vertex   -3.134776e+02 -1.104357e+01 -1.168347e+01
      vertex   -3.132673e+02 -1.404357e+01 -1.169603e+01
      vertex   -3.134776e+02 -1.404357e+01 -1.168347e+01
    endloop
  endfacet
  facet normal 1.988219e-02 7.534477e-16 -9.998023e-01
    outer loop
      vertex   -3.134776e+02 -1.104357e+01 -1.168347e+01
      vertex   -3.134776e+02 -1.404357e+01 -1.168347e+01
      vertex   -3.136883e+02 -1.104357e+01 -1.168766e+01
    endloop
  endfacet
  facet normal 1.988219e-02 7.534477e-16 -9.998023e-01
    outer loop
      vertex   -3.136883e+02 -1.104357e+01 -1.168766e+01
      vertex   -3.134776e+02 -1.404357e+01 -1.168347e+01
      vertex   -3.136883e+02 -1.404357e+01 -1.168766e+01
    endloop
  endfacet
  facet normal 9.925380e-02 3.761284e-15 -9.950622e-01
    outer loop
      vertex   -3.136883e+02 -1.104357e+01 -1.168766e+01
      vertex   -3.136883e+02 -1.404357e+01 -1.168766e+01
      vertex   -3.138980e+02 -1.104357e+01 -1.170857e+01
    endloop
  endfacet
  facet normal 9.925380e-02 3.761284e-15 -9.950622e-01
    outer loop
      vertex   -3.138980e+02 -1.104357e+01 -1.170857e+01
      vertex   -3.136883e+02 -1.404357e+01 -1.168766e+01
      vertex   -3.138980e+02 -1.404357e+01 -1.170857e+01
    endloop
  endfacet
  facet normal 1.779979e-01 6.745339e-15 -9.840309e-01
    outer loop
      vertex   -3.138980e+02 -1.104357e+01 -1.170857e+01
      vertex   -3.138980e+02 -1.404357e+01 -1.170857e+01
      vertex   -3.141053e+02 -1.104357e+01 -1.174608e+01
    endloop
  endfacet
  facet normal 1.779979e-01 6.745339e-15 -9.840309e-01
    outer loop
      vertex   -3.141053e+02 -1.104357e+01 -1.174608e+01
      vertex   -3.138980e+02 -1.404357e+01 -1.170857e+01
      vertex   -3.141053e+02 -1.404357e+01 -1.174608e+01
    endloop
  endfacet
  facet normal 2.556166e-01 9.686749e-15 -9.667782e-01
    outer loop
      vertex   -3.141053e+02 -1.104357e+01 -1.174608e+01
      vertex   -3.141053e+02 -1.404357e+01 -1.174608e+01
      vertex   -3.143090e+02 -1.104357e+01 -1.179994e+01
    endloop
  endfacet
  facet normal 2.556166e-01 9.686749e-15 -9.667782e-01
    outer loop
      vertex   -3.143090e+02 -1.104357e+01 -1.179994e+01
      vertex   -3.141053e+02 -1.404357e+01 -1.174608e+01
      vertex   -3.143090e+02 -1.404357e+01 -1.179994e+01
    endloop
  endfacet
  facet normal 3.316193e-01 1.256692e-14 -9.434133e-01
    outer loop
      vertex   -3.143090e+02 -1.104357e+01 -1.179994e+01
      vertex   -3.143090e+02 -1.404357e+01 -1.179994e+01
      vertex   -3.145078e+02 -1.104357e+01 -1.186981e+01
    endloop
  endfacet
  facet normal 3.316193e-01 6.283458e-15 -9.434133e-01
    outer loop
      vertex   -3.145078e+02 -1.104357e+01 -1.186981e+01
      vertex   -3.143090e+02 -1.404357e+01 -1.179994e+01
      vertex   -3.145078e+02 -1.404357e+01 -1.186981e+01
    endloop
  endfacet
  facet normal 4.055253e-01 7.683815e-15 -9.140838e-01
    outer loop
      vertex   -3.145078e+02 -1.104357e+01 -1.186981e+01
      vertex   -3.145078e+02 -1.404357e+01 -1.186981e+01
      vertex   -3.147004e+02 -1.104357e+01 -1.195526e+01
    endloop
  endfacet
  facet normal 4.055253e-01 1.590888e-14 -9.140838e-01
    outer loop
      vertex   -3.147004e+02 -1.104357e+01 -1.195526e+01
      vertex   -3.145078e+02 -1.404357e+01 -1.186981e+01
      vertex   -3.147004e+02 -1.404357e+01 -1.195526e+01
    endloop
  endfacet
  facet normal 4.768675e-01 1.859164e-14 -8.789752e-01
    outer loop
      vertex   -3.147004e+02 -1.104357e+01 -1.195526e+01
      vertex   -3.147004e+02 -1.404357e+01 -1.195526e+01
      vertex   -3.148856e+02 -1.104357e+01 -1.205574e+01
    endloop
  endfacet
  facet normal 4.768675e-01 1.807119e-14 -8.789752e-01
    outer loop
      vertex   -3.148856e+02 -1.104357e+01 -1.205574e+01
      vertex   -3.147004e+02 -1.404357e+01 -1.195526e+01
      vertex   -3.148856e+02 -1.404357e+01 -1.205574e+01
    endloop
  endfacet
  facet normal 5.451948e-01 2.066049e-14 -8.383094e-01
    outer loop
      vertex   -3.148856e+02 -1.104357e+01 -1.205574e+01
      vertex   -3.148856e+02 -1.404357e+01 -1.205574e+01
      vertex   -3.150622e+02 -1.104357e+01 -1.217062e+01
    endloop
  endfacet
  facet normal 5.451948e-01 2.066049e-14 -8.383094e-01
    outer loop
      vertex   -3.150622e+02 -1.104357e+01 -1.217062e+01
      vertex   -3.148856e+02 -1.404357e+01 -1.205574e+01
      vertex   -3.150622e+02 -1.404357e+01 -1.217062e+01
    endloop
  endfacet
  facet normal 6.100751e-01 2.311917e-14 -7.923436e-01
    outer loop
      vertex   -3.150622e+02 -1.104357e+01 -1.217062e+01
      vertex   -3.150622e+02 -1.404357e+01 -1.217062e+01
      vertex   -3.152292e+02 -1.104357e+01 -1.229917e+01
    endloop
  endfacet
  facet normal 6.100751e-01 2.311917e-14 -7.923436e-01
    outer loop
      vertex   -3.152292e+02 -1.104357e+01 -1.229917e+01
      vertex   -3.150622e+02 -1.404357e+01 -1.217062e+01
      vertex   -3.152292e+02 -1.404357e+01 -1.229917e+01
    endloop
  endfacet
  facet normal 6.710984e-01 2.543169e-14 -7.413683e-01
    outer loop
      vertex   -3.152292e+02 -1.104357e+01 -1.229917e+01
      vertex   -3.152292e+02 -1.404357e+01 -1.229917e+01
      vertex   -3.153854e+02 -1.104357e+01 -1.244057e+01
    endloop
  endfacet
  facet normal 6.710984e-01 2.587066e-14 -7.413683e-01
    outer loop
      vertex   -3.153854e+02 -1.104357e+01 -1.244057e+01
      vertex   -3.152292e+02 -1.404357e+01 -1.229917e+01
      vertex   -3.153854e+02 -1.404357e+01 -1.244057e+01
    endloop
  endfacet
  facet normal 7.278788e-01 2.798943e-14 -6.857058e-01
    outer loop
      vertex   -3.153854e+02 -1.104357e+01 -1.244057e+01
      vertex   -3.153854e+02 -1.404357e+01 -1.244057e+01
      vertex   -3.155299e+02 -1.104357e+01 -1.259395e+01
    endloop
  endfacet
  facet normal 7.278788e-01 1.379171e-14 -6.857058e-01
    outer loop
      vertex   -3.155299e+02 -1.104357e+01 -1.259395e+01
      vertex   -3.153854e+02 -1.404357e+01 -1.244057e+01
      vertex   -3.155299e+02 -1.404357e+01 -1.259395e+01
    endloop
  endfacet
  facet normal 7.800573e-01 1.478037e-14 -6.257081e-01
    outer loop
      vertex   -3.155299e+02 -1.104357e+01 -1.259395e+01
      vertex   -3.155299e+02 -1.404357e+01 -1.259395e+01
      vertex   -3.156617e+02 -1.104357e+01 -1.275831e+01
    endloop
  endfacet
  facet normal 7.800573e-01 3.030174e-14 -6.257081e-01
    outer loop
      vertex   -3.156617e+02 -1.104357e+01 -1.275831e+01
      vertex   -3.155299e+02 -1.404357e+01 -1.259395e+01
      vertex   -3.156617e+02 -1.404357e+01 -1.275831e+01
    endloop
  endfacet
  facet normal 8.273040e-01 3.201644e-14 -5.617544e-01
    outer loop
      vertex   -3.156617e+02 -1.104357e+01 -1.275831e+01
      vertex   -3.156617e+02 -1.404357e+01 -1.275831e+01
      vertex   -3.157801e+02 -1.104357e+01 -1.293263e+01
    endloop
  endfacet
  facet normal 8.273040e-01 3.135119e-14 -5.617544e-01
    outer loop
      vertex   -3.157801e+02 -1.104357e+01 -1.293263e+01
      vertex   -3.156617e+02 -1.404357e+01 -1.275831e+01
      vertex   -3.157801e+02 -1.404357e+01 -1.293263e+01
    endloop
  endfacet
  facet normal 8.693203e-01 3.294342e-14 -4.942492e-01
    outer loop
      vertex   -3.157801e+02 -1.104357e+01 -1.293263e+01
      vertex   -3.157801e+02 -1.404357e+01 -1.293263e+01
      vertex   -3.158843e+02 -1.104357e+01 -1.311581e+01
    endloop
  endfacet
  facet normal 8.693203e-01 3.294342e-14 -4.942492e-01
    outer loop
      vertex   -3.158843e+02 -1.104357e+01 -1.311581e+01
      vertex   -3.157801e+02 -1.404357e+01 -1.293263e+01
      vertex   -3.158843e+02 -1.404357e+01 -1.311581e+01
    endloop
  endfacet
  facet normal 9.058404e-01 3.432738e-14 -4.236191e-01
    outer loop
      vertex   -3.158843e+02 -1.104357e+01 -1.311581e+01
      vertex   -3.158843e+02 -1.404357e+01 -1.311581e+01
      vertex   -3.159735e+02 -1.104357e+01 -1.330667e+01
    endloop
  endfacet
  facet normal 9.058404e-01 3.457821e-14 -4.236191e-01
    outer loop
      vertex   -3.159735e+02 -1.104357e+01 -1.330667e+01
      vertex   -3.158843e+02 -1.404357e+01 -1.311581e+01
      vertex   -3.159735e+02 -1.404357e+01 -1.330667e+01
    endloop
  endfacet
  facet normal 9.366335e-01 3.570173e-14 -3.503108e-01
    outer loop
      vertex   -3.159735e+02 -1.104357e+01 -1.330667e+01
      vertex   -3.159735e+02 -1.404357e+01 -1.330667e+01
      vertex   -3.160473e+02 -1.104357e+01 -1.350403e+01
    endloop
  endfacet
  facet normal 9.366335e-01 3.590915e-14 -3.503108e-01
    outer loop
      vertex   -3.160473e+02 -1.104357e+01 -1.350403e+01
      vertex   -3.159735e+02 -1.404357e+01 -1.330667e+01
      vertex   -3.160473e+02 -1.404357e+01 -1.350403e+01
    endloop
  endfacet
  facet normal 9.615049e-01 3.676223e-14 -2.747878e-01
    outer loop
      vertex   -3.160473e+02 -1.104357e+01 -1.350403e+01
      vertex   -3.160473e+02 -1.404357e+01 -1.350403e+01
      vertex   -3.161052e+02 -1.104357e+01 -1.370663e+01
    endloop
  endfacet
  facet normal 9.615049e-01 3.643682e-14 -2.747878e-01
    outer loop
      vertex   -3.161052e+02 -1.104357e+01 -1.370663e+01
      vertex   -3.160473e+02 -1.404357e+01 -1.350403e+01
      vertex   -3.161052e+02 -1.404357e+01 -1.370663e+01
    endloop
  endfacet
  facet normal 9.802974e-01 3.714897e-14 -1.975274e-01
    outer loop
      vertex   -3.161052e+02 -1.104357e+01 -1.370663e+01
      vertex   -3.161052e+02 -1.404357e+01 -1.370663e+01
      vertex   -3.161468e+02 -1.104357e+01 -1.391319e+01
    endloop
  endfacet
  facet normal 9.802974e-01 3.714897e-14 -1.975274e-01
    outer loop
      vertex   -3.161468e+02 -1.104357e+01 -1.391319e+01
      vertex   -3.161052e+02 -1.404357e+01 -1.370663e+01
      vertex   -3.161468e+02 -1.404357e+01 -1.391319e+01
    endloop
  endfacet
  facet normal 9.928921e-01 3.762625e-14 -1.190182e-01
    outer loop
      vertex   -3.161468e+02 -1.104357e+01 -1.391319e+01
      vertex   -3.161468e+02 -1.404357e+01 -1.391319e+01
      vertex   -3.161719e+02 -1.104357e+01 -1.412240e+01
    endloop
  endfacet
  facet normal 9.928921e-01 3.762625e-14 -1.190182e-01
    outer loop
      vertex   -3.161719e+02 -1.104357e+01 -1.412240e+01
      vertex   -3.161468e+02 -1.404357e+01 -1.391319e+01
      vertex   -3.161719e+02 -1.404357e+01 -1.412240e+01
    endloop
  endfacet
  facet normal -3.197442e-14 1.000000e+00 -1.184238e-15
    outer loop
      vertex   -3.035303e+02 8.806669e+00 -2.438294e+01
      vertex   -3.035303e+02 8.806669e+00 -2.738294e+01
      vertex   -3.085303e+02 8.806669e+00 -2.438294e+01
    endloop
  endfacet
  facet normal -3.197442e-14 1.000000e+00 -1.184238e-15
    outer loop
      vertex   -3.085303e+02 8.806669e+00 -2.438294e+01
      vertex   -3.035303e+02 8.806669e+00 -2.738294e+01
      vertex   -3.085303e+02 8.806669e+00 -2.738294e+01
    endloop
  endfacet
  facet normal 3.197442e-14 -1.000000e+00 -1.776357e-15
    outer loop
      vertex   -3.035303e+02 1.320667e+01 -2.738294e+01
      vertex   -3.035303e+02 1.320667e+01 -2.438294e+01
      vertex   -3.085303e+02 1.320667e+01 -2.738294e+01
    endloop
  endfacet
  facet normal 3.197442e-14 -1.000000e+00 -1.776357e-15
    outer loop
      vertex   -3.085303e+02 1.320667e+01 -2.738294e+01
      vertex   -3.035303e+02 1.320667e+01 -2.438294e+01
      vertex   -3.085303e+02 1.320667e+01 -2.438294e+01
    endloop
  endfacet
  facet normal 1.000000e+00 2.583792e-14 4.589736e-29
    outer loop
      vertex   -3.085303e+02 1.320667e+01 -2.738294e+01
      vertex   -3.085303e+02 1.320667e+01 -2.438294e+01
      vertex   -3.085303e+02 8.806669e+00 -2.738294e+01
    endloop
  endfacet
  facet normal 1.000000e+00 2.583792e-14 -3.059824e-29
    outer loop
      vertex   -3.085303e+02 8.806669e+00 -2.738294e+01
      vertex   -3.085303e+02 1.320667e+01 -2.438294e+01
      vertex   -3.085303e+02 8.806669e+00 -2.438294e+01
    endloop
  endfacet
  facet normal 1.000000e+00 3.536626e-14 6.282310e-29
    outer loop
      vertex   -3.035303e+02 1.320667e+01 -2.738294e+01
      vertex   -3.035303e+02 1.642123e+01 -2.738294e+01
      vertex   -3.035303e+02 1.320667e+01 -2.438294e+01
    endloop
  endfacet
  facet normal 1.000000e+00 3.536626e-14 0.000000e+00
    outer loop
      vertex   -3.035303e+02 1.320667e+01 -2.438294e+01
      vertex   -3.035303e+02 1.642123e+01 -2.738294e+01
      vertex   -3.035303e+02 1.642123e+01 -2.438294e+01
    endloop
  endfacet
  facet normal 1.000000e+00 3.436336e-14 -4.069439e-29
    outer loop
      vertex   -3.035303e+02 8.806669e+00 -2.438294e+01
      vertex   -3.035303e+02 -1.104357e+01 -2.438294e+01
      vertex   -3.035303e+02 8.806669e+00 -2.738294e+01
    endloop
  endfacet
  facet normal 1.000000e+00 3.233946e-14 -1.339165e-14
    outer loop
      vertex   -3.035303e+02 8.806669e+00 -2.738294e+01
      vertex   -3.035303e+02 -1.104357e+01 -2.438294e+01
      vertex   -3.035303e+02 -1.404357e+01 -2.738294e+01
    endloop
  endfacet
  facet normal 1.000000e+00 2.687945e-14 -7.931640e-15
    outer loop
      vertex   -3.035303e+02 -1.404357e+01 -2.738294e+01
      vertex   -3.035303e+02 -1.104357e+01 -2.438294e+01
      vertex   -3.035303e+02 -1.404357e+01 -5.882943e+00
    endloop
  endfacet
  facet normal 1.000000e+00 3.789561e-14 -6.145234e-15
    outer loop
      vertex   -3.035303e+02 -1.404357e+01 -5.882943e+00
      vertex   -3.035303e+02 -1.104357e+01 -2.438294e+01
      vertex   -3.035303e+02 -1.104357e+01 -5.882943e+00
    endloop
  endfacet
  facet normal -6.394885e-15 -1.554782e-16 -1.000000e+00
    outer loop
      vertex   -3.035303e+02 8.806669e+00 -2.738294e+01
      vertex   -3.035303e+02 -1.404357e+01 -2.738294e+01
      vertex   -3.085303e+02 8.806669e+00 -2.738294e+01
    endloop
  endfacet
  facet normal -5.684342e-15 -1.838285e-28 -1.000000e+00
    outer loop
      vertex   -3.085303e+02 8.806669e+00 -2.738294e+01
      vertex   -3.035303e+02 -1.404357e+01 -2.738294e+01
      vertex   -3.235303e+02 -1.404357e+01 -2.738294e+01
    endloop
  endfacet
  facet normal -5.329045e-15 -2.332340e-16 -1.000000e+00
    outer loop
      vertex   -3.085303e+02 8.806669e+00 -2.738294e+01
      vertex   -3.235303e+02 -1.404357e+01 -2.738294e+01
      vertex   -3.235303e+02 1.642123e+01 -2.738294e+01
    endloop
  endfacet
  facet normal -6.030415e-15 -1.614870e-15 -1.000000e+00
    outer loop
      vertex   -3.085303e+02 8.806669e+00 -2.738294e+01
      vertex   -3.235303e+02 1.642123e+01 -2.738294e+01
      vertex   -3.085303e+02 1.320667e+01 -2.738294e+01
    endloop
  endfacet
  facet normal -5.506706e-15 8.288967e-16 -1.000000e+00
    outer loop
      vertex   -3.085303e+02 1.320667e+01 -2.738294e+01
      vertex   -3.235303e+02 1.642123e+01 -2.738294e+01
      vertex   -3.035303e+02 1.642123e+01 -2.738294e+01
    endloop
  endfacet
  facet normal -4.973799e-15 -1.759047e-28 -1.000000e+00
    outer loop
      vertex   -3.085303e+02 1.320667e+01 -2.738294e+01
      vertex   -3.035303e+02 1.642123e+01 -2.738294e+01
      vertex   -3.035303e+02 1.320667e+01 -2.738294e+01
    endloop
  endfacet
  facet normal 2.016104e-13 1.000000e+00 2.029040e-13
    outer loop
      vertex   -3.161719e+02 -1.104357e+01 -1.412240e+01
      vertex   -3.161803e+02 -1.104357e+01 -1.433294e+01
      vertex   -3.235303e+02 -1.104357e+01 -5.882943e+00
    endloop
  endfacet
  facet normal -2.872947e-13 1.000000e+00 -2.223566e-13
    outer loop
      vertex   -3.235303e+02 -1.104357e+01 -5.882943e+00
      vertex   -3.161803e+02 -1.104357e+01 -1.433294e+01
      vertex   -3.161719e+02 -1.104357e+01 -1.454349e+01
    endloop
  endfacet
  facet normal -2.558904e-14 1.000000e+00 2.358760e-28
    outer loop
      vertex   -3.235303e+02 -1.104357e+01 -5.882943e+00
      vertex   -3.161719e+02 -1.104357e+01 -1.454349e+01
      vertex   -3.235303e+02 -1.104357e+01 -2.438294e+01
    endloop
  endfacet
  facet normal -2.205405e-14 1.000000e+00 -2.643624e-15
    outer loop
      vertex   -3.235303e+02 -1.104357e+01 -2.438294e+01
      vertex   -3.161719e+02 -1.104357e+01 -1.454349e+01
      vertex   -3.161468e+02 -1.104357e+01 -1.475270e+01
    endloop
  endfacet
  facet normal -2.907702e-14 1.000000e+00 2.740852e-15
    outer loop
      vertex   -3.235303e+02 -1.104357e+01 -2.438294e+01
      vertex   -3.161468e+02 -1.104357e+01 -1.475270e+01
      vertex   -3.161052e+02 -1.104357e+01 -1.495926e+01
    endloop
  endfacet
  facet normal -3.511686e-14 1.000000e+00 7.499736e-15
    outer loop
      vertex   -3.161052e+02 -1.104357e+01 -1.495926e+01
      vertex   -3.160473e+02 -1.104357e+01 -1.516185e+01
      vertex   -3.235303e+02 -1.104357e+01 -2.438294e+01
    endloop
  endfacet
  facet normal -2.530417e-14 1.000000e+00 -4.633266e-16
    outer loop
      vertex   -3.235303e+02 -1.104357e+01 -2.438294e+01
      vertex   -3.160473e+02 -1.104357e+01 -1.516185e+01
      vertex   -3.159735e+02 -1.104357e+01 -1.535921e+01
    endloop
  endfacet
  facet normal -2.372299e-14 1.000000e+00 -1.787462e-15
    outer loop
      vertex   -3.235303e+02 -1.104357e+01 -2.438294e+01
      vertex   -3.159735e+02 -1.104357e+01 -1.535921e+01
      vertex   -3.158843e+02 -1.104357e+01 -1.555008e+01
    endloop
  endfacet
  facet normal -2.908850e-14 1.000000e+00 2.857118e-15
    outer loop
      vertex   -3.158843e+02 -1.104357e+01 -1.555008e+01
      vertex   -3.157801e+02 -1.104357e+01 -1.573326e+01
      vertex   -3.235303e+02 -1.104357e+01 -2.438294e+01
    endloop
  endfacet
  facet normal -3.414348e-14 1.000000e+00 7.386428e-15
    outer loop
      vertex   -3.235303e+02 -1.104357e+01 -2.438294e+01
      vertex   -3.157801e+02 -1.104357e+01 -1.573326e+01
      vertex   -3.156617e+02 -1.104357e+01 -1.590758e+01
    endloop
  endfacet
  facet normal -3.278442e-14 1.000000e+00 6.124673e-15
    outer loop
      vertex   -3.235303e+02 -1.104357e+01 -2.438294e+01
      vertex   -3.156617e+02 -1.104357e+01 -1.590758e+01
      vertex   -3.155299e+02 -1.104357e+01 -1.607194e+01
    endloop
  endfacet
  facet normal -2.551531e-14 1.000000e+00 -8.727812e-16
    outer loop
      vertex   -3.155299e+02 -1.104357e+01 -1.607194e+01
      vertex   -3.153854e+02 -1.104357e+01 -1.622531e+01
      vertex   -3.235303e+02 -1.104357e+01 -2.438294e+01
    endloop
  endfacet
  facet normal -3.641988e-14 1.000000e+00 1.001476e-14
    outer loop
      vertex   -3.235303e+02 -1.104357e+01 -2.438294e+01
      vertex   -3.153854e+02 -1.104357e+01 -1.622531e+01
      vertex   -3.152292e+02 -1.104357e+01 -1.636672e+01
    endloop
  endfacet
  facet normal -2.370581e-14 1.000000e+00 -3.151139e-15
    outer loop
      vertex   -3.235303e+02 -1.104357e+01 -2.438294e+01
      vertex   -3.152292e+02 -1.104357e+01 -1.636672e+01
      vertex   -3.150622e+02 -1.104357e+01 -1.649527e+01
    endloop
  endfacet
  facet normal -3.464034e-14 1.000000e+00 8.587959e-15
    outer loop
      vertex   -3.150622e+02 -1.104357e+01 -1.649527e+01
      vertex   -3.148856e+02 -1.104357e+01 -1.661015e+01
      vertex   -3.235303e+02 -1.104357e+01 -2.438294e+01
    endloop
  endfacet
  facet normal -3.405717e-14 1.000000e+00 7.939370e-15
    outer loop
      vertex   -3.235303e+02 -1.104357e+01 -2.438294e+01
      vertex   -3.148856e+02 -1.104357e+01 -1.661015e+01
      vertex   -3.147004e+02 -1.104357e+01 -1.671063e+01
    endloop
  endfacet
  facet normal -3.360142e-14 1.000000e+00 7.414865e-15
    outer loop
      vertex   -3.235303e+02 -1.104357e+01 -2.438294e+01
      vertex   -3.147004e+02 -1.104357e+01 -1.671063e+01
      vertex   -3.145078e+02 -1.104357e+01 -1.679607e+01
    endloop
  endfacet
  facet normal -3.327438e-14 1.000000e+00 7.025939e-15
    outer loop
      vertex   -3.145078e+02 -1.104357e+01 -1.679607e+01
      vertex   -3.143090e+02 -1.104357e+01 -1.686595e+01
      vertex   -3.235303e+02 -1.104357e+01 -2.438294e+01
    endloop
  endfacet
  facet normal -3.308423e-14 1.000000e+00 6.792672e-15
    outer loop
      vertex   -3.235303e+02 -1.104357e+01 -2.438294e+01
      vertex   -3.143090e+02 -1.104357e+01 -1.686595e+01
      vertex   -3.141053e+02 -1.104357e+01 -1.691981e+01
    endloop
  endfacet
  facet normal -3.304820e-14 1.000000e+00 6.747173e-15
    outer loop
      vertex   -3.235303e+02 -1.104357e+01 -2.438294e+01
      vertex   -3.141053e+02 -1.104357e+01 -1.691981e+01
      vertex   -3.138980e+02 -1.104357e+01 -1.695732e+01
    endloop
  endfacet
  facet normal -3.319657e-14 1.000000e+00 6.939631e-15
    outer loop
      vertex   -3.138980e+02 -1.104357e+01 -1.695732e+01
      vertex   -3.136883e+02 -1.104357e+01 -1.697823e+01
      vertex   -3.235303e+02 -1.104357e+01 -2.438294e+01
    endloop
  endfacet
  facet normal -4.179486e-14 1.000000e+00 1.836810e-14
    outer loop
      vertex   -3.235303e+02 -1.104357e+01 -2.438294e+01
      vertex   -3.136883e+02 -1.104357e+01 -1.697823e+01
      vertex   -3.134776e+02 -1.104357e+01 -1.698242e+01
    endloop
  endfacet
  facet normal -3.188561e-14 1.000000e+00 4.907618e-15
    outer loop
      vertex   -3.235303e+02 -1.104357e+01 -2.438294e+01
      vertex   -3.134776e+02 -1.104357e+01 -1.698242e+01
      vertex   -3.035303e+02 -1.104357e+01 -2.438294e+01
    endloop
  endfacet
  facet normal -2.609413e-14 1.000000e+00 1.269215e-14
    outer loop
      vertex   -3.035303e+02 -1.104357e+01 -2.438294e+01
      vertex   -3.134776e+02 -1.104357e+01 -1.698242e+01
      vertex   -3.132673e+02 -1.104357e+01 -1.696986e+01
    endloop
  endfacet
  facet normal -4.869536e-14 1.000000e+00 -1.699423e-14
    outer loop
      vertex   -3.035303e+02 -1.104357e+01 -2.438294e+01
      vertex   -3.132673e+02 -1.104357e+01 -1.696986e+01
      vertex   -3.130586e+02 -1.104357e+01 -1.694063e+01
    endloop
  endfacet
  facet normal -2.801581e-14 1.000000e+00 9.481538e-15
    outer loop
      vertex   -3.130586e+02 -1.104357e+01 -1.694063e+01
      vertex   -3.128529e+02 -1.104357e+01 -1.689491e+01
      vertex   -3.035303e+02 -1.104357e+01 -2.438294e+01
    endloop
  endfacet
  facet normal -3.537653e-14 1.000000e+00 3.174278e-16
    outer loop
      vertex   -3.035303e+02 -1.104357e+01 -2.438294e+01
      vertex   -3.128529e+02 -1.104357e+01 -1.689491e+01
      vertex   -3.126515e+02 -1.104357e+01 -1.683299e+01
    endloop
  endfacet
  facet normal -3.607220e-14 1.000000e+00 -5.230182e-16
    outer loop
      vertex   -3.035303e+02 -1.104357e+01 -2.438294e+01
      vertex   -3.126515e+02 -1.104357e+01 -1.683299e+01
      vertex   -3.124557e+02 -1.104357e+01 -1.675527e+01
    endloop
  endfacet
  facet normal -3.090548e-14 1.000000e+00 5.522702e-15
    outer loop
      vertex   -3.124557e+02 -1.104357e+01 -1.675527e+01
      vertex   -3.122666e+02 -1.104357e+01 -1.666223e+01
      vertex   -3.035303e+02 -1.104357e+01 -2.438294e+01
    endloop
  endfacet
  facet normal -3.785122e-14 1.000000e+00 -2.336679e-15
    outer loop
      vertex   -3.035303e+02 -1.104357e+01 -2.438294e+01
      vertex   -3.122666e+02 -1.104357e+01 -1.666223e+01
      vertex   -3.120855e+02 -1.104357e+01 -1.655446e+01
    endloop
  endfacet
  facet normal -3.887703e-14 1.000000e+00 -3.457722e-15
    outer loop
      vertex   -3.035303e+02 -1.104357e+01 -2.438294e+01
      vertex   -3.120855e+02 -1.104357e+01 -1.655446e+01
      vertex   -3.119136e+02 -1.104357e+01 -1.643265e+01
    endloop
  endfacet
  facet normal -2.835195e-14 1.000000e+00 7.640607e-15
    outer loop
      vertex   -3.119136e+02 -1.104357e+01 -1.643265e+01
      vertex   -3.117519e+02 -1.104357e+01 -1.629757e+01
      vertex   -3.035303e+02 -1.104357e+01 -2.438294e+01
    endloop
  endfacet
  facet normal -4.155309e-14 1.000000e+00 -5.782941e-15
    outer loop
      vertex   -3.035303e+02 -1.104357e+01 -2.438294e+01
      vertex   -3.117519e+02 -1.104357e+01 -1.629757e+01
      vertex   -3.116014e+02 -1.104357e+01 -1.615006e+01
    endloop
  endfacet
  facet normal -3.701090e-14 1.000000e+00 -1.329994e-15
    outer loop
      vertex   -3.035303e+02 -1.104357e+01 -2.438294e+01
      vertex   -3.116014e+02 -1.104357e+01 -1.615006e+01
      vertex   -3.114632e+02 -1.104357e+01 -1.599107e+01
    endloop
  endfacet
  facet normal -3.243295e-14 1.000000e+00 2.997548e-15
    outer loop
      vertex   -3.114632e+02 -1.104357e+01 -1.599107e+01
      vertex   -3.113379e+02 -1.104357e+01 -1.582159e+01
      vertex   -3.035303e+02 -1.104357e+01 -2.438294e+01
    endloop
  endfacet
  facet normal -4.064517e-14 1.000000e+00 -4.491694e-15
    outer loop
      vertex   -3.035303e+02 -1.104357e+01 -2.438294e+01
      vertex   -3.113379e+02 -1.104357e+01 -1.582159e+01
      vertex   -3.112266e+02 -1.104357e+01 -1.564270e+01
    endloop
  endfacet
  facet normal -2.918488e-14 1.000000e+00 5.599769e-15
    outer loop
      vertex   -3.035303e+02 -1.104357e+01 -2.438294e+01
      vertex   -3.112266e+02 -1.104357e+01 -1.564270e+01
      vertex   -3.111298e+02 -1.104357e+01 -1.545553e+01
    endloop
  endfacet
  facet normal -4.552426e-14 1.000000e+00 -8.309247e-15
    outer loop
      vertex   -3.111298e+02 -1.104357e+01 -1.545553e+01
      vertex   -3.110482e+02 -1.104357e+01 -1.526127e+01
      vertex   -3.035303e+02 -1.104357e+01 -2.438294e+01
    endloop
  endfacet
  facet normal -3.301833e-14 1.000000e+00 1.997917e-15
    outer loop
      vertex   -3.035303e+02 -1.104357e+01 -2.438294e+01
      vertex   -3.110482e+02 -1.104357e+01 -1.526127e+01
      vertex   -3.109823e+02 -1.104357e+01 -1.506113e+01
    endloop
  endfacet
  facet normal -3.555306e-14 1.000000e+00 -2.839401e-17
    outer loop
      vertex   -3.035303e+02 -1.104357e+01 -2.438294e+01
      vertex   -3.109823e+02 -1.104357e+01 -1.506113e+01
      vertex   -3.109325e+02 -1.104357e+01 -1.485639e+01
    endloop
  endfacet
  facet normal -2.943856e-14 1.000000e+00 4.722631e-15
    outer loop
      vertex   -3.109325e+02 -1.104357e+01 -1.485639e+01
      vertex   -3.108991e+02 -1.104357e+01 -1.464834e+01
      vertex   -3.035303e+02 -1.104357e+01 -2.438294e+01
    endloop
  endfacet
  facet normal -3.227874e-14 1.000000e+00 2.572684e-15
    outer loop
      vertex   -3.035303e+02 -1.104357e+01 -2.438294e+01
      vertex   -3.108991e+02 -1.104357e+01 -1.464834e+01
      vertex   -3.108824e+02 -1.104357e+01 -1.443830e+01
    endloop
  endfacet
  facet normal -3.575863e-14 1.000000e+00 2.197451e-28
    outer loop
      vertex   -3.035303e+02 -1.104357e+01 -2.438294e+01
      vertex   -3.108824e+02 -1.104357e+01 -1.443830e+01
      vertex   -3.035303e+02 -1.104357e+01 -5.882943e+00
    endloop
  endfacet
  facet normal -3.575863e-14 1.000000e+00 0.000000e+00
    outer loop
      vertex   -3.035303e+02 -1.104357e+01 -5.882943e+00
      vertex   -3.108824e+02 -1.104357e+01 -1.443830e+01
      vertex   -3.108824e+02 -1.104357e+01 -1.422759e+01
    endloop
  endfacet
  facet normal -3.279218e-14 1.000000e+00 -2.613606e-15
    outer loop
      vertex   -3.035303e+02 -1.104357e+01 -5.882943e+00
      vertex   -3.108824e+02 -1.104357e+01 -1.422759e+01
      vertex   -3.108991e+02 -1.104357e+01 -1.401755e+01
    endloop
  endfacet
  facet normal -3.030971e-14 1.000000e+00 -4.862384e-15
    outer loop
      vertex   -3.108991e+02 -1.104357e+01 -1.401755e+01
      vertex   -3.109325e+02 -1.104357e+01 -1.380950e+01
      vertex   -3.035303e+02 -1.104357e+01 -5.882943e+00
    endloop
  endfacet
  facet normal -3.554819e-14 1.000000e+00 2.957837e-17
    outer loop
      vertex   -3.035303e+02 -1.104357e+01 -5.882943e+00
      vertex   -3.109325e+02 -1.104357e+01 -1.380950e+01
      vertex   -3.109823e+02 -1.104357e+01 -1.360476e+01
    endloop
  endfacet
  facet normal -3.333815e-14 1.000000e+00 -2.103243e-15
    outer loop
      vertex   -3.035303e+02 -1.104357e+01 -5.882943e+00
      vertex   -3.109823e+02 -1.104357e+01 -1.360476e+01
      vertex   -3.110482e+02 -1.104357e+01 -1.340462e+01
    endloop
  endfacet
  facet normal -4.427912e-14 1.000000e+00 8.832265e-15
    outer loop
      vertex   -3.110482e+02 -1.104357e+01 -1.340462e+01
      vertex   -3.111298e+02 -1.104357e+01 -1.321035e+01
      vertex   -3.035303e+02 -1.104357e+01 -5.882943e+00
    endloop
  endfacet
  facet normal -2.997162e-14 1.000000e+00 -6.006565e-15
    outer loop
      vertex   -3.035303e+02 -1.104357e+01 -5.882943e+00
      vertex   -3.111298e+02 -1.104357e+01 -1.321035e+01
      vertex   -3.112266e+02 -1.104357e+01 -1.302318e+01
    endloop
  endfacet
  facet normal -4.005320e-14 1.000000e+00 4.860140e-15
    outer loop
      vertex   -3.035303e+02 -1.104357e+01 -5.882943e+00
      vertex   -3.112266e+02 -1.104357e+01 -1.302318e+01
      vertex   -3.113379e+02 -1.104357e+01 -1.284429e+01
    endloop
  endfacet
  facet normal -3.280329e-14 1.000000e+00 -3.271143e-15
    outer loop
      vertex   -3.113379e+02 -1.104357e+01 -1.284429e+01
      vertex   -3.114632e+02 -1.104357e+01 -1.267482e+01
      vertex   -3.035303e+02 -1.104357e+01 -5.882943e+00
    endloop
  endfacet
  facet normal -3.685714e-14 1.000000e+00 1.463717e-15
    outer loop
      vertex   -3.035303e+02 -1.104357e+01 -5.882943e+00
      vertex   -3.114632e+02 -1.104357e+01 -1.267482e+01
      vertex   -3.116014e+02 -1.104357e+01 -1.251582e+01
    endloop
  endfacet
  facet normal -4.092948e-14 1.000000e+00 6.419080e-15
    outer loop
      vertex   -3.035303e+02 -1.104357e+01 -5.882943e+00
      vertex   -3.116014e+02 -1.104357e+01 -1.251582e+01
      vertex   -3.117519e+02 -1.104357e+01 -1.236832e+01
    endloop
  endfacet
  facet normal -2.911671e-14 1.000000e+00 -8.556115e-15
    outer loop
      vertex   -3.117519e+02 -1.104357e+01 -1.236832e+01
      vertex   -3.119136e+02 -1.104357e+01 -1.223323e+01
      vertex   -3.035303e+02 -1.104357e+01 -5.882943e+00
    endloop
  endfacet
  facet normal -3.855810e-14 1.000000e+00 3.907887e-15
    outer loop
      vertex   -3.035303e+02 -1.104357e+01 -5.882943e+00
      vertex   -3.119136e+02 -1.104357e+01 -1.223323e+01
      vertex   -3.120855e+02 -1.104357e+01 -1.211142e+01
    endloop
  endfacet
  facet normal -3.765466e-14 1.000000e+00 2.666945e-15
    outer loop
      vertex   -3.035303e+02 -1.104357e+01 -5.882943e+00
      vertex   -3.120855e+02 -1.104357e+01 -1.211142e+01
      vertex   -3.122666e+02 -1.104357e+01 -1.200366e+01
    endloop
  endfacet
  facet normal -3.132280e-14 1.000000e+00 -6.370718e-15
    outer loop
      vertex   -3.122666e+02 -1.104357e+01 -1.200366e+01
      vertex   -3.124557e+02 -1.104357e+01 -1.191062e+01
      vertex   -3.035303e+02 -1.104357e+01 -5.882943e+00
    endloop
  endfacet
  facet normal -3.603750e-14 1.000000e+00 6.104640e-16
    outer loop
      vertex   -3.035303e+02 -1.104357e+01 -5.882943e+00
      vertex   -3.124557e+02 -1.104357e+01 -1.191062e+01
      vertex   -3.126515e+02 -1.104357e+01 -1.183290e+01
    endloop
  endfacet
  facet normal -3.539437e-14 1.000000e+00 -3.754451e-16
    outer loop
      vertex   -3.035303e+02 -1.104357e+01 -5.882943e+00
      vertex   -3.126515e+02 -1.104357e+01 -1.183290e+01
      vertex   -3.128529e+02 -1.104357e+01 -1.177098e+01
    endloop
  endfacet
  facet normal -2.843941e-14 1.000000e+00 -1.138732e-14
    outer loop
      vertex   -3.128529e+02 -1.104357e+01 -1.177098e+01
      vertex   -3.130586e+02 -1.104357e+01 -1.172526e+01
      vertex   -3.035303e+02 -1.104357e+01 -5.882943e+00
    endloop
  endfacet
  facet normal -4.816462e-14 1.000000e+00 2.078275e-14
    outer loop
      vertex   -3.035303e+02 -1.104357e+01 -5.882943e+00
      vertex   -3.130586e+02 -1.104357e+01 -1.172526e+01
      vertex   -3.132673e+02 -1.104357e+01 -1.169603e+01
    endloop
  endfacet
  facet normal -2.628379e-14 1.000000e+00 -1.586787e-14
    outer loop
      vertex   -3.035303e+02 -1.104357e+01 -5.882943e+00
      vertex   -3.132673e+02 -1.104357e+01 -1.169603e+01
      vertex   -3.134776e+02 -1.104357e+01 -1.168347e+01
    endloop
  endfacet
  facet normal -3.188561e-14 1.000000e+00 -6.261321e-15
    outer loop
      vertex   -3.035303e+02 -1.104357e+01 -5.882943e+00
      vertex   -3.134776e+02 -1.104357e+01 -1.168347e+01
      vertex   -3.235303e+02 -1.104357e+01 -5.882943e+00
    endloop
  endfacet
  facet normal -4.169746e-14 1.000000e+00 -2.326590e-14
    outer loop
      vertex   -3.235303e+02 -1.104357e+01 -5.882943e+00
      vertex   -3.134776e+02 -1.104357e+01 -1.168347e+01
      vertex   -3.136883e+02 -1.104357e+01 -1.168766e+01
    endloop
  endfacet
  facet normal -3.303337e-14 1.000000e+00 -8.575753e-15
    outer loop
      vertex   -3.235303e+02 -1.104357e+01 -5.882943e+00
      vertex   -3.136883e+02 -1.104357e+01 -1.168766e+01
      vertex   -3.138980e+02 -1.104357e+01 -1.170857e+01
    endloop
  endfacet
  facet normal -3.279017e-14 1.000000e+00 -8.173639e-15
    outer loop
      vertex   -3.138980e+02 -1.104357e+01 -1.170857e+01
      vertex   -3.141053e+02 -1.104357e+01 -1.174608e+01
      vertex   -3.235303e+02 -1.104357e+01 -5.882943e+00
    endloop
  endfacet
  facet normal -3.274030e-14 1.000000e+00 -8.093467e-15
    outer loop
      vertex   -3.235303e+02 -1.104357e+01 -5.882943e+00
      vertex   -3.141053e+02 -1.104357e+01 -1.174608e+01
      vertex   -3.143090e+02 -1.104357e+01 -1.179994e+01
    endloop
  endfacet
  facet normal -3.284292e-14 1.000000e+00 -8.253396e-15
    outer loop
      vertex   -3.235303e+02 -1.104357e+01 -5.882943e+00
      vertex   -3.143090e+02 -1.104357e+01 -1.179994e+01
      vertex   -3.145078e+02 -1.104357e+01 -1.186981e+01
    endloop
  endfacet
  facet normal -3.307455e-14 1.000000e+00 -8.602475e-15
    outer loop
      vertex   -3.145078e+02 -1.104357e+01 -1.186981e+01
      vertex   -3.147004e+02 -1.104357e+01 -1.195526e+01
      vertex   -3.235303e+02 -1.104357e+01 -5.882943e+00
    endloop
  endfacet
  facet normal -3.342273e-14 1.000000e+00 -9.108776e-15
    outer loop
      vertex   -3.235303e+02 -1.104357e+01 -5.882943e+00
      vertex   -3.147004e+02 -1.104357e+01 -1.195526e+01
      vertex   -3.148856e+02 -1.104357e+01 -1.205574e+01
    endloop
  endfacet
  facet normal -3.388270e-14 1.000000e+00 -9.752933e-15
    outer loop
      vertex   -3.235303e+02 -1.104357e+01 -5.882943e+00
      vertex   -3.148856e+02 -1.104357e+01 -1.205574e+01
      vertex   -3.150622e+02 -1.104357e+01 -1.217062e+01
    endloop
  endfacet
  facet normal -2.400891e-14 1.000000e+00 3.544793e-15
    outer loop
      vertex   -3.150622e+02 -1.104357e+01 -1.217062e+01
      vertex   -3.152292e+02 -1.104357e+01 -1.229917e+01
      vertex   -3.235303e+02 -1.104357e+01 -5.882943e+00
    endloop
  endfacet
  facet normal -3.537865e-14 1.000000e+00 -1.116501e-14
    outer loop
      vertex   -3.235303e+02 -1.104357e+01 -5.882943e+00
      vertex   -3.152292e+02 -1.104357e+01 -1.229917e+01
      vertex   -3.153854e+02 -1.104357e+01 -1.244057e+01
    endloop
  endfacet
  facet normal -2.561281e-14 1.000000e+00 9.646320e-16
    outer loop
      vertex   -3.235303e+02 -1.104357e+01 -5.882943e+00
      vertex   -3.153854e+02 -1.104357e+01 -1.244057e+01
      vertex   -3.155299e+02 -1.104357e+01 -1.259395e+01
    endloop
  endfacet
  facet normal -3.205222e-14 1.000000e+00 -6.711998e-15
    outer loop
      vertex   -3.155299e+02 -1.104357e+01 -1.259395e+01
      vertex   -3.156617e+02 -1.104357e+01 -1.275831e+01
      vertex   -3.235303e+02 -1.104357e+01 -5.882943e+00
    endloop
  endfacet
  facet normal -3.320082e-14 1.000000e+00 -8.026517e-15
    outer loop
      vertex   -3.235303e+02 -1.104357e+01 -5.882943e+00
      vertex   -3.156617e+02 -1.104357e+01 -1.275831e+01
      vertex   -3.157801e+02 -1.104357e+01 -1.293263e+01
    endloop
  endfacet
  facet normal -2.869972e-14 1.000000e+00 -3.078158e-15
    outer loop
      vertex   -3.235303e+02 -1.104357e+01 -5.882943e+00
      vertex   -3.157801e+02 -1.104357e+01 -1.293263e+01
      vertex   -3.158843e+02 -1.104357e+01 -1.311581e+01
    endloop
  endfacet
  facet normal -2.398231e-14 1.000000e+00 1.908735e-15
    outer loop
      vertex   -3.158843e+02 -1.104357e+01 -1.311581e+01
      vertex   -3.159735e+02 -1.104357e+01 -1.330667e+01
      vertex   -3.235303e+02 -1.104357e+01 -5.882943e+00
    endloop
  endfacet
  facet normal -2.537591e-14 1.000000e+00 4.901584e-16
    outer loop
      vertex   -3.235303e+02 -1.104357e+01 -5.882943e+00
      vertex   -3.159735e+02 -1.104357e+01 -1.330667e+01
      vertex   -3.160473e+02 -1.104357e+01 -1.350403e+01
    endloop
  endfacet
  facet normal -3.387480e-14 1.000000e+00 -7.854705e-15
    outer loop
      vertex   -3.235303e+02 -1.104357e+01 -5.882943e+00
      vertex   -3.160473e+02 -1.104357e+01 -1.350403e+01
      vertex   -3.161052e+02 -1.104357e+01 -1.370663e+01
    endloop
  endfacet
  facet normal -2.858984e-14 1.000000e+00 -2.839017e-15
    outer loop
      vertex   -3.161052e+02 -1.104357e+01 -1.370663e+01
      vertex   -3.161468e+02 -1.104357e+01 -1.391319e+01
      vertex   -3.235303e+02 -1.104357e+01 -5.882943e+00
    endloop
  endfacet
  facet normal -2.256085e-14 1.000000e+00 2.704374e-15
    outer loop
      vertex   -3.235303e+02 -1.104357e+01 -5.882943e+00
      vertex   -3.161468e+02 -1.104357e+01 -1.391319e+01
      vertex   -3.161719e+02 -1.104357e+01 -1.412240e+01
    endloop
  endfacet
  facet normal 4.973799e-15 1.789758e-16 1.000000e+00
    outer loop
      vertex   -3.035303e+02 8.806669e+00 -2.438294e+01
      vertex   -3.085303e+02 8.806669e+00 -2.438294e+01
      vertex   -3.035303e+02 -1.104357e+01 -2.438294e+01
    endloop
  endfacet
  facet normal 5.506706e-15 3.132077e-16 1.000000e+00
    outer loop
      vertex   -3.035303e+02 -1.104357e+01 -2.438294e+01
      vertex   -3.085303e+02 8.806669e+00 -2.438294e+01
      vertex   -3.235303e+02 -1.104357e+01 -2.438294e+01
    endloop
  endfacet
  facet normal 6.434736e-15 -3.880655e-16 1.000000e+00
    outer loop
      vertex   -3.235303e+02 -1.104357e+01 -2.438294e+01
      vertex   -3.085303e+02 8.806669e+00 -2.438294e+01
      vertex   -3.235303e+02 1.642123e+01 -2.438294e+01
    endloop
  endfacet
  facet normal 5.402080e-15 -2.422305e-15 1.000000e+00
    outer loop
      vertex   -3.235303e+02 1.642123e+01 -2.438294e+01
      vertex   -3.085303e+02 8.806669e+00 -2.438294e+01
      vertex   -3.085303e+02 1.320667e+01 -2.438294e+01
    endloop
  endfacet
  facet normal 5.506706e-15 -1.934092e-15 1.000000e+00
    outer loop
      vertex   -3.235303e+02 1.642123e+01 -2.438294e+01
      vertex   -3.085303e+02 1.320667e+01 -2.438294e+01
      vertex   -3.035303e+02 1.642123e+01 -2.438294e+01
    endloop
  endfacet
  facet normal 5.684342e-15 -2.210391e-15 1.000000e+00
    outer loop
      vertex   -3.035303e+02 1.642123e+01 -2.438294e+01
      vertex   -3.085303e+02 1.320667e+01 -2.438294e+01
      vertex   -3.035303e+02 1.320667e+01 -2.438294e+01
    endloop
  endfacet
  facet normal -3.197442e-14 1.000000e+00 0.000000e+00
    outer loop
      vertex   -3.035303e+02 1.642123e+01 -2.438294e+01
      vertex   -3.035303e+02 1.642123e+01 -2.738294e+01
      vertex   -3.235303e+02 1.642123e+01 -2.438294e+01
    endloop
  endfacet
  facet normal -3.197442e-14 1.000000e+00 0.000000e+00
    outer loop
      vertex   -3.235303e+02 1.642123e+01 -2.438294e+01
      vertex   -3.035303e+02 1.642123e+01 -2.738294e+01
      vertex   -3.235303e+02 1.642123e+01 -2.738294e+01
    endloop
  endfacet
  facet normal 2.875479e-13 -1.000000e+00 2.223667e-13
    outer loop
      vertex   -3.161719e+02 -1.404357e+01 -1.454349e+01
      vertex   -3.161803e+02 -1.404357e+01 -1.433294e+01
      vertex   -3.235303e+02 -1.404357e+01 -5.882943e+00
    endloop
  endfacet
  facet normal -2.013793e-13 -1.000000e+00 -2.029132e-13
    outer loop
      vertex   -3.235303e+02 -1.404357e+01 -5.882943e+00
      vertex   -3.161803e+02 -1.404357e+01 -1.433294e+01
      vertex   -3.161719e+02 -1.404357e+01 -1.412240e+01
    endloop
  endfacet
  facet normal 2.277369e-14 -1.000000e+00 -2.729887e-15
    outer loop
      vertex   -3.235303e+02 -1.404357e+01 -5.882943e+00
      vertex   -3.161719e+02 -1.404357e+01 -1.412240e+01
      vertex   -3.161468e+02 -1.404357e+01 -1.391319e+01
    endloop
  endfacet
  facet normal 2.878718e-14 -1.000000e+00 2.799254e-15
    outer loop
      vertex   -3.161468e+02 -1.404357e+01 -1.391319e+01
      vertex   -3.161052e+02 -1.404357e+01 -1.370663e+01
      vertex   -3.235303e+02 -1.404357e+01 -5.882943e+00
    endloop
  endfacet
  facet normal 2.695825e-14 -1.000000e+00 1.063501e-15
    outer loop
      vertex   -3.235303e+02 -1.404357e+01 -5.882943e+00
      vertex   -3.161052e+02 -1.404357e+01 -1.370663e+01
      vertex   -3.160473e+02 -1.404357e+01 -1.350403e+01
    endloop
  endfacet
  facet normal 2.537591e-14 -1.000000e+00 -4.901584e-16
    outer loop
      vertex   -3.235303e+02 -1.404357e+01 -5.882943e+00
      vertex   -3.160473e+02 -1.404357e+01 -1.350403e+01
      vertex   -3.159735e+02 -1.404357e+01 -1.330667e+01
    endloop
  endfacet
  facet normal 3.024700e-14 -1.000000e+00 4.468236e-15
    outer loop
      vertex   -3.159735e+02 -1.404357e+01 -1.330667e+01
      vertex   -3.158843e+02 -1.404357e+01 -1.311581e+01
      vertex   -3.235303e+02 -1.404357e+01 -5.882943e+00
    endloop
  endfacet
  facet normal 2.885079e-14 -1.000000e+00 2.992266e-15
    outer loop
      vertex   -3.235303e+02 -1.404357e+01 -5.882943e+00
      vertex   -3.158843e+02 -1.404357e+01 -1.311581e+01
      vertex   -3.157801e+02 -1.404357e+01 -1.293263e+01
    endloop
  endfacet
  facet normal 3.334250e-14 -1.000000e+00 7.930308e-15
    outer loop
      vertex   -3.235303e+02 -1.404357e+01 -5.882943e+00
      vertex   -3.157801e+02 -1.404357e+01 -1.293263e+01
      vertex   -3.156617e+02 -1.404357e+01 -1.275831e+01
    endloop
  endfacet
  facet normal 2.663300e-14 -1.000000e+00 2.515659e-16
    outer loop
      vertex   -3.156617e+02 -1.404357e+01 -1.275831e+01
      vertex   -3.155299e+02 -1.404357e+01 -1.259395e+01
      vertex   -3.235303e+02 -1.404357e+01 -5.882943e+00
    endloop
  endfacet
  facet normal 3.103973e-14 -1.000000e+00 5.504974e-15
    outer loop
      vertex   -3.235303e+02 -1.404357e+01 -5.882943e+00
      vertex   -3.155299e+02 -1.404357e+01 -1.259395e+01
      vertex   -3.153854e+02 -1.404357e+01 -1.244057e+01
    endloop
  endfacet
  facet normal 3.549408e-14 -1.000000e+00 1.103750e-14
    outer loop
      vertex   -3.235303e+02 -1.404357e+01 -5.882943e+00
      vertex   -3.153854e+02 -1.404357e+01 -1.244057e+01
      vertex   -3.152292e+02 -1.404357e+01 -1.229917e+01
    endloop
  endfacet
  facet normal 2.411570e-14 -1.000000e+00 -3.683486e-15
    outer loop
      vertex   -3.152292e+02 -1.404357e+01 -1.229917e+01
      vertex   -3.150622e+02 -1.404357e+01 -1.217062e+01
      vertex   -3.235303e+02 -1.404357e+01 -5.882943e+00
    endloop
  endfacet
  facet normal 3.398064e-14 -1.000000e+00 9.602329e-15
    outer loop
      vertex   -3.235303e+02 -1.404357e+01 -5.882943e+00
      vertex   -3.150622e+02 -1.404357e+01 -1.217062e+01
      vertex   -3.148856e+02 -1.404357e+01 -1.205574e+01
    endloop
  endfacet
  facet normal 3.351145e-14 -1.000000e+00 8.945249e-15
    outer loop
      vertex   -3.235303e+02 -1.404357e+01 -5.882943e+00
      vertex   -3.148856e+02 -1.404357e+01 -1.205574e+01
      vertex   -3.147004e+02 -1.404357e+01 -1.195526e+01
    endloop
  endfacet
  facet normal 2.754728e-14 -1.000000e+00 2.726065e-16
    outer loop
      vertex   -3.147004e+02 -1.404357e+01 -1.195526e+01
      vertex   -3.145078e+02 -1.404357e+01 -1.186981e+01
      vertex   -3.235303e+02 -1.404357e+01 -5.882943e+00
    endloop
  endfacet
  facet normal 3.868444e-14 -1.000000e+00 1.705685e-14
    outer loop
      vertex   -3.235303e+02 -1.404357e+01 -5.882943e+00
      vertex   -3.145078e+02 -1.404357e+01 -1.186981e+01
      vertex   -3.143090e+02 -1.404357e+01 -1.179994e+01
    endloop
  endfacet
  facet normal 3.279651e-14 -1.000000e+00 7.880859e-15
    outer loop
      vertex   -3.235303e+02 -1.404357e+01 -5.882943e+00
      vertex   -3.143090e+02 -1.404357e+01 -1.179994e+01
      vertex   -3.141053e+02 -1.404357e+01 -1.174608e+01
    endloop
  endfacet
  facet normal 3.283263e-14 -1.000000e+00 7.938919e-15
    outer loop
      vertex   -3.141053e+02 -1.404357e+01 -1.174608e+01
      vertex   -3.138980e+02 -1.404357e+01 -1.170857e+01
      vertex   -3.235303e+02 -1.404357e+01 -5.882943e+00
    endloop
  endfacet
  facet normal 3.305948e-14 -1.000000e+00 8.314001e-15
    outer loop
      vertex   -3.235303e+02 -1.404357e+01 -5.882943e+00
      vertex   -3.138980e+02 -1.404357e+01 -1.170857e+01
      vertex   -3.136883e+02 -1.404357e+01 -1.168766e+01
    endloop
  endfacet
  facet normal 3.354635e-14 -1.000000e+00 9.139502e-15
    outer loop
      vertex   -3.235303e+02 -1.404357e+01 -5.882943e+00
      vertex   -3.136883e+02 -1.404357e+01 -1.168766e+01
      vertex   -3.134776e+02 -1.404357e+01 -1.168347e+01
    endloop
  endfacet
  facet normal 3.188561e-14 -1.000000e+00 6.261321e-15
    outer loop
      vertex   -3.235303e+02 -1.404357e+01 -5.882943e+00
      vertex   -3.134776e+02 -1.404357e+01 -1.168347e+01
      vertex   -3.035303e+02 -1.404357e+01 -5.882943e+00
    endloop
  endfacet
  facet normal 3.394458e-14 -1.000000e+00 2.730390e-15
    outer loop
      vertex   -3.035303e+02 -1.404357e+01 -5.882943e+00
      vertex   -3.134776e+02 -1.404357e+01 -1.168347e+01
      vertex   -3.132673e+02 -1.404357e+01 -1.169603e+01
    endloop
  endfacet
  facet normal 4.123515e-14 -1.000000e+00 -9.481394e-15
    outer loop
      vertex   -3.035303e+02 -1.404357e+01 -5.882943e+00
      vertex   -3.132673e+02 -1.404357e+01 -1.169603e+01
      vertex   -3.130586e+02 -1.404357e+01 -1.172526e+01
    endloop
  endfacet
  facet normal 3.477779e-14 -1.000000e+00 1.049987e-15
    outer loop
      vertex   -3.130586e+02 -1.404357e+01 -1.172526e+01
      vertex   -3.128529e+02 -1.404357e+01 -1.177098e+01
      vertex   -3.035303e+02 -1.404357e+01 -5.882943e+00
    endloop
  endfacet
  facet normal 3.533199e-14 -1.000000e+00 1.725261e-16
    outer loop
      vertex   -3.035303e+02 -1.404357e+01 -5.882943e+00
      vertex   -3.128529e+02 -1.404357e+01 -1.177098e+01
      vertex   -3.126515e+02 -1.404357e+01 -1.183290e+01
    endloop
  endfacet
  facet normal 3.032460e-14 -1.000000e+00 7.848791e-15
    outer loop
      vertex   -3.035303e+02 -1.404357e+01 -5.882943e+00
      vertex   -3.126515e+02 -1.404357e+01 -1.183290e+01
      vertex   -3.124557e+02 -1.404357e+01 -1.191062e+01
    endloop
  endfacet
  facet normal 3.675807e-14 -1.000000e+00 -1.677437e-15
    outer loop
      vertex   -3.124557e+02 -1.404357e+01 -1.191062e+01
      vertex   -3.122666e+02 -1.404357e+01 -1.200366e+01
      vertex   -3.035303e+02 -1.404357e+01 -5.882943e+00
    endloop
  endfacet
  facet normal 3.756126e-14 -1.000000e+00 -2.823864e-15
    outer loop
      vertex   -3.035303e+02 -1.404357e+01 -5.882943e+00
      vertex   -3.122666e+02 -1.404357e+01 -1.200366e+01
      vertex   -3.120855e+02 -1.404357e+01 -1.211142e+01
    endloop
  endfacet
  facet normal 3.845570e-14 -1.000000e+00 -4.052428e-15
    outer loop
      vertex   -3.035303e+02 -1.404357e+01 -5.882943e+00
      vertex   -3.120855e+02 -1.404357e+01 -1.211142e+01
      vertex   -3.119136e+02 -1.404357e+01 -1.223323e+01
    endloop
  endfacet
  facet normal 2.900559e-14 -1.000000e+00 8.423087e-15
    outer loop
      vertex   -3.119136e+02 -1.404357e+01 -1.223323e+01
      vertex   -3.117519e+02 -1.404357e+01 -1.236832e+01
      vertex   -3.035303e+02 -1.404357e+01 -5.882943e+00
    endloop
  endfacet
  facet normal 4.080976e-14 -1.000000e+00 -6.541208e-15
    outer loop
      vertex   -3.035303e+02 -1.404357e+01 -5.882943e+00
      vertex   -3.117519e+02 -1.404357e+01 -1.236832e+01
      vertex   -3.116014e+02 -1.404357e+01 -1.251582e+01
    endloop
  endfacet
  facet normal 3.137416e-14 -1.000000e+00 4.940355e-15
    outer loop
      vertex   -3.035303e+02 -1.404357e+01 -5.882943e+00
      vertex   -3.116014e+02 -1.404357e+01 -1.251582e+01
      vertex   -3.114632e+02 -1.404357e+01 -1.267482e+01
    endloop
  endfacet
  facet normal 3.830027e-14 -1.000000e+00 -3.149276e-15
    outer loop
      vertex   -3.114632e+02 -1.404357e+01 -1.267482e+01
      vertex   -3.113379e+02 -1.404357e+01 -1.284429e+01
      vertex   -3.035303e+02 -1.404357e+01 -5.882943e+00
    endloop
  endfacet
  facet normal 3.990689e-14 -1.000000e+00 -4.951210e-15
    outer loop
      vertex   -3.035303e+02 -1.404357e+01 -5.882943e+00
      vertex   -3.113379e+02 -1.404357e+01 -1.284429e+01
      vertex   -3.112266e+02 -1.404357e+01 -1.302318e+01
    endloop
  endfacet
  facet normal 2.981564e-14 -1.000000e+00 5.925913e-15
    outer loop
      vertex   -3.035303e+02 -1.404357e+01 -5.882943e+00
      vertex   -3.112266e+02 -1.404357e+01 -1.302318e+01
      vertex   -3.111298e+02 -1.404357e+01 -1.321035e+01
    endloop
  endfacet
  facet normal 3.783772e-14 -1.000000e+00 -2.394078e-15
    outer loop
      vertex   -3.111298e+02 -1.404357e+01 -1.321035e+01
      vertex   -3.110482e+02 -1.404357e+01 -1.340462e+01
      vertex   -3.035303e+02 -1.404357e+01 -5.882943e+00
    endloop
  endfacet
  facet normal 3.333815e-14 -1.000000e+00 2.103243e-15
    outer loop
      vertex   -3.035303e+02 -1.404357e+01 -5.882943e+00
      vertex   -3.110482e+02 -1.404357e+01 -1.340462e+01
      vertex   -3.109823e+02 -1.404357e+01 -1.360476e+01
    endloop
  endfacet
  facet normal 4.272869e-14 -1.000000e+00 -6.959187e-15
    outer loop
      vertex   -3.035303e+02 -1.404357e+01 -5.882943e+00
      vertex   -3.109823e+02 -1.404357e+01 -1.360476e+01
      vertex   -3.109325e+02 -1.404357e+01 -1.380950e+01
    endloop
  endfacet
  facet normal 3.010491e-14 -1.000000e+00 4.829530e-15
    outer loop
      vertex   -3.109325e+02 -1.404357e+01 -1.380950e+01
      vertex   -3.108991e+02 -1.404357e+01 -1.401755e+01
      vertex   -3.035303e+02 -1.404357e+01 -5.882943e+00
    endloop
  endfacet
  facet normal 3.257061e-14 -1.000000e+00 2.595946e-15
    outer loop
      vertex   -3.035303e+02 -1.404357e+01 -5.882943e+00
      vertex   -3.108991e+02 -1.404357e+01 -1.401755e+01
      vertex   -3.108824e+02 -1.404357e+01 -1.422759e+01
    endloop
  endfacet
  facet normal 3.551701e-14 -1.000000e+00 0.000000e+00
    outer loop
      vertex   -3.035303e+02 -1.404357e+01 -5.882943e+00
      vertex   -3.108824e+02 -1.404357e+01 -1.422759e+01
      vertex   -3.108824e+02 -1.404357e+01 -1.443830e+01
    endloop
  endfacet
  facet normal 3.914783e-14 -1.000000e+00 -3.120165e-15
    outer loop
      vertex   -3.108824e+02 -1.404357e+01 -1.443830e+01
      vertex   -3.108991e+02 -1.404357e+01 -1.464834e+01
      vertex   -3.035303e+02 -1.404357e+01 -5.882943e+00
    endloop
  endfacet
  facet normal 3.543632e-14 -1.000000e+00 -2.810682e-28
    outer loop
      vertex   -3.035303e+02 -1.404357e+01 -5.882943e+00
      vertex   -3.108991e+02 -1.404357e+01 -1.464834e+01
      vertex   -3.035303e+02 -1.404357e+01 -2.738294e+01
    endloop
  endfacet
  facet normal 2.774448e-14 -1.000000e+00 -4.450861e-15
    outer loop
      vertex   -3.035303e+02 -1.404357e+01 -2.738294e+01
      vertex   -3.108991e+02 -1.404357e+01 -1.464834e+01
      vertex   -3.109325e+02 -1.404357e+01 -1.485639e+01
    endloop
  endfacet
  facet normal 4.579232e-14 -1.000000e+00 6.214003e-15
    outer loop
      vertex   -3.035303e+02 -1.404357e+01 -2.738294e+01
      vertex   -3.109325e+02 -1.404357e+01 -1.485639e+01
      vertex   -3.109823e+02 -1.404357e+01 -1.506113e+01
    endloop
  endfacet
  facet normal 3.249758e-14 -1.000000e+00 -1.826423e-15
    outer loop
      vertex   -3.109823e+02 -1.404357e+01 -1.506113e+01
      vertex   -3.110482e+02 -1.404357e+01 -1.526127e+01
      vertex   -3.035303e+02 -1.404357e+01 -2.738294e+01
    endloop
  endfacet
  facet normal 3.871108e-14 -1.000000e+00 2.027223e-15
    outer loop
      vertex   -3.035303e+02 -1.404357e+01 -2.738294e+01
      vertex   -3.110482e+02 -1.404357e+01 -1.526127e+01
      vertex   -3.111298e+02 -1.404357e+01 -1.545553e+01
    endloop
  endfacet
  facet normal 2.783556e-14 -1.000000e+00 -4.902090e-15
    outer loop
      vertex   -3.035303e+02 -1.404357e+01 -2.738294e+01
      vertex   -3.111298e+02 -1.404357e+01 -1.545553e+01
      vertex   -3.112266e+02 -1.404357e+01 -1.564270e+01
    endloop
  endfacet
  facet normal 4.142489e-14 -1.000000e+00 4.006380e-15
    outer loop
      vertex   -3.112266e+02 -1.404357e+01 -1.564270e+01
      vertex   -3.113379e+02 -1.404357e+01 -1.582159e+01
      vertex   -3.035303e+02 -1.404357e+01 -2.738294e+01
    endloop
  endfacet
  facet normal 3.918637e-14 -1.000000e+00 2.494655e-15
    outer loop
      vertex   -3.035303e+02 -1.404357e+01 -2.738294e+01
      vertex   -3.113379e+02 -1.404357e+01 -1.582159e+01
      vertex   -3.114632e+02 -1.404357e+01 -1.599107e+01
    endloop
  endfacet
  facet normal 3.010031e-14 -1.000000e+00 -3.832517e-15
    outer loop
      vertex   -3.035303e+02 -1.404357e+01 -2.738294e+01
      vertex   -3.114632e+02 -1.404357e+01 -1.599107e+01
      vertex   -3.116014e+02 -1.404357e+01 -1.615006e+01
    endloop
  endfacet
  facet normal 4.235047e-14 -1.000000e+00 4.969549e-15
    outer loop
      vertex   -3.116014e+02 -1.404357e+01 -1.615006e+01
      vertex   -3.117519e+02 -1.404357e+01 -1.629757e+01
      vertex   -3.035303e+02 -1.404357e+01 -2.738294e+01
    endloop
  endfacet
  facet normal 2.720277e-14 -1.000000e+00 -6.264910e-15
    outer loop
      vertex   -3.035303e+02 -1.404357e+01 -2.738294e+01
      vertex   -3.117519e+02 -1.404357e+01 -1.629757e+01
      vertex   -3.119136e+02 -1.404357e+01 -1.643265e+01
    endloop
  endfacet
  facet normal 3.923764e-14 -1.000000e+00 2.948722e-15
    outer loop
      vertex   -3.035303e+02 -1.404357e+01 -2.738294e+01
      vertex   -3.119136e+02 -1.404357e+01 -1.643265e+01
      vertex   -3.120855e+02 -1.404357e+01 -1.655446e+01
    endloop
  endfacet
  facet normal 3.804687e-14 -1.000000e+00 2.007935e-15
    outer loop
      vertex   -3.120855e+02 -1.404357e+01 -1.655446e+01
      vertex   -3.122666e+02 -1.404357e+01 -1.666223e+01
      vertex   -3.035303e+02 -1.404357e+01 -2.738294e+01
    endloop
  endfacet
  facet normal 3.701088e-14 -1.000000e+00 1.163708e-15
    outer loop
      vertex   -3.035303e+02 -1.404357e+01 -2.738294e+01
      vertex   -3.122666e+02 -1.404357e+01 -1.666223e+01
      vertex   -3.124557e+02 -1.404357e+01 -1.675527e+01
    endloop
  endfacet
  facet normal 2.931343e-14 -1.000000e+00 -5.300786e-15
    outer loop
      vertex   -3.035303e+02 -1.404357e+01 -2.738294e+01
      vertex   -3.124557e+02 -1.404357e+01 -1.675527e+01
      vertex   -3.126515e+02 -1.404357e+01 -1.683299e+01
    endloop
  endfacet
  facet normal 3.531372e-14 -1.000000e+00 -1.130968e-16
    outer loop
      vertex   -3.126515e+02 -1.404357e+01 -1.683299e+01
      vertex   -3.128529e+02 -1.404357e+01 -1.689491e+01
      vertex   -3.035303e+02 -1.404357e+01 -2.738294e+01
    endloop
  endfacet
  facet normal 3.469232e-14 -1.000000e+00 -6.654441e-16
    outer loop
      vertex   -3.035303e+02 -1.404357e+01 -2.738294e+01
      vertex   -3.128529e+02 -1.404357e+01 -1.689491e+01
      vertex   -3.130586e+02 -1.404357e+01 -1.694063e+01
    endloop
  endfacet
  facet normal 4.175395e-14 -1.000000e+00 5.778083e-15
    outer loop
      vertex   -3.035303e+02 -1.404357e+01 -2.738294e+01
      vertex   -3.130586e+02 -1.404357e+01 -1.694063e+01
      vertex   -3.132673e+02 -1.404357e+01 -1.696986e+01
    endloop
  endfacet
  facet normal 3.387636e-14 -1.000000e+00 -1.588029e-15
    outer loop
      vertex   -3.132673e+02 -1.404357e+01 -1.696986e+01
      vertex   -3.134776e+02 -1.404357e+01 -1.698242e+01
      vertex   -3.035303e+02 -1.404357e+01 -2.738294e+01
    endloop
  endfacet
  facet normal 3.188561e-14 -1.000000e+00 -3.492030e-15
    outer loop
      vertex   -3.035303e+02 -1.404357e+01 -2.738294e+01
      vertex   -3.134776e+02 -1.404357e+01 -1.698242e+01
      vertex   -3.235303e+02 -1.404357e+01 -2.738294e+01
    endloop
  endfacet
  facet normal 3.362522e-14 -1.000000e+00 -5.173465e-15
    outer loop
      vertex   -3.235303e+02 -1.404357e+01 -2.738294e+01
      vertex   -3.134776e+02 -1.404357e+01 -1.698242e+01
      vertex   -3.136883e+02 -1.404357e+01 -1.697823e+01
    endloop
  endfacet
  facet normal 3.339451e-14 -1.000000e+00 -4.955227e-15
    outer loop
      vertex   -3.235303e+02 -1.404357e+01 -2.738294e+01
      vertex   -3.136883e+02 -1.404357e+01 -1.697823e+01
      vertex   -3.138980e+02 -1.404357e+01 -1.695732e+01
    endloop
  endfacet
  facet normal 3.337551e-14 -1.000000e+00 -4.937681e-15
    outer loop
      vertex   -3.138980e+02 -1.404357e+01 -1.695732e+01
      vertex   -3.141053e+02 -1.404357e+01 -1.691981e+01
      vertex   -3.235303e+02 -1.404357e+01 -2.738294e+01
    endloop
  endfacet
  facet normal 3.353638e-14 -1.000000e+00 -5.082585e-15
    outer loop
      vertex   -3.235303e+02 -1.404357e+01 -2.738294e+01
      vertex   -3.141053e+02 -1.404357e+01 -1.691981e+01
      vertex   -3.143090e+02 -1.404357e+01 -1.686595e+01
    endloop
  endfacet
  facet normal 4.068903e-14 -1.000000e+00 -1.135403e-14
    outer loop
      vertex   -3.235303e+02 -1.404357e+01 -2.738294e+01
      vertex   -3.143090e+02 -1.404357e+01 -1.686595e+01
      vertex   -3.145078e+02 -1.404357e+01 -1.679607e+01
    endloop
  endfacet
  facet normal 2.758542e-14 -1.000000e+00 -1.866557e-16
    outer loop
      vertex   -3.145078e+02 -1.404357e+01 -1.679607e+01
      vertex   -3.147004e+02 -1.404357e+01 -1.671063e+01
      vertex   -3.235303e+02 -1.404357e+01 -2.738294e+01
    endloop
  endfacet
  facet normal 3.495517e-14 -1.000000e+00 -6.284139e-15
    outer loop
      vertex   -3.235303e+02 -1.404357e+01 -2.738294e+01
      vertex   -3.147004e+02 -1.404357e+01 -1.671063e+01
      vertex   -3.148856e+02 -1.404357e+01 -1.661015e+01
    endloop
  endfacet
  facet normal 3.573280e-14 -1.000000e+00 -6.908152e-15
    outer loop
      vertex   -3.235303e+02 -1.404357e+01 -2.738294e+01
      vertex   -3.148856e+02 -1.404357e+01 -1.661015e+01
      vertex   -3.150622e+02 -1.404357e+01 -1.649527e+01
    endloop
  endfacet
  facet normal 2.336625e-14 -1.000000e+00 2.710125e-15
    outer loop
      vertex   -3.150622e+02 -1.404357e+01 -1.649527e+01
      vertex   -3.152292e+02 -1.404357e+01 -1.636672e+01
      vertex   -3.235303e+02 -1.404357e+01 -2.738294e+01
    endloop
  endfacet
  facet normal 3.797432e-14 -1.000000e+00 -8.297557e-15
    outer loop
      vertex   -3.235303e+02 -1.404357e+01 -2.738294e+01
      vertex   -3.152292e+02 -1.404357e+01 -1.636672e+01
      vertex   -3.153854e+02 -1.404357e+01 -1.622531e+01
    endloop
  endfacet
  facet normal 3.239708e-14 -1.000000e+00 -4.226264e-15
    outer loop
      vertex   -3.235303e+02 -1.404357e+01 -2.738294e+01
      vertex   -3.153854e+02 -1.404357e+01 -1.622531e+01
      vertex   -3.155299e+02 -1.404357e+01 -1.607194e+01
    endloop
  endfacet
  facet normal 2.670077e-14 -1.000000e+00 -1.971987e-16
    outer loop
      vertex   -3.155299e+02 -1.404357e+01 -1.607194e+01
      vertex   -3.156617e+02 -1.404357e+01 -1.590758e+01
      vertex   -3.235303e+02 -1.404357e+01 -2.738294e+01
    endloop
  endfacet
  facet normal 3.567189e-14 -1.000000e+00 -6.348614e-15
    outer loop
      vertex   -3.235303e+02 -1.404357e+01 -2.738294e+01
      vertex   -3.156617e+02 -1.404357e+01 -1.590758e+01
      vertex   -3.157801e+02 -1.404357e+01 -1.573326e+01
    endloop
  endfacet
  facet normal 2.980841e-14 -1.000000e+00 -2.447814e-15
    outer loop
      vertex   -3.235303e+02 -1.404357e+01 -2.738294e+01
      vertex   -3.157801e+02 -1.404357e+01 -1.573326e+01
      vertex   -3.158843e+02 -1.404357e+01 -1.555008e+01
    endloop
  endfacet
  facet normal 3.180651e-14 -1.000000e+00 -3.738927e-15
    outer loop
      vertex   -3.158843e+02 -1.404357e+01 -1.555008e+01
      vertex   -3.159735e+02 -1.404357e+01 -1.535921e+01
      vertex   -3.235303e+02 -1.404357e+01 -2.738294e+01
    endloop
  endfacet
  facet normal 2.518886e-14 -1.000000e+00 4.201977e-16
    outer loop
      vertex   -3.235303e+02 -1.404357e+01 -2.738294e+01
      vertex   -3.159735e+02 -1.404357e+01 -1.535921e+01
      vertex   -3.160473e+02 -1.404357e+01 -1.516185e+01
    endloop
  endfacet
  facet normal 2.740397e-14 -1.000000e+00 -9.361181e-16
    outer loop
      vertex   -3.235303e+02 -1.404357e+01 -2.738294e+01
      vertex   -3.160473e+02 -1.404357e+01 -1.516185e+01
      vertex   -3.161052e+02 -1.404357e+01 -1.495926e+01
    endloop
  endfacet
  facet normal 3.008412e-14 -1.000000e+00 -2.537924e-15
    outer loop
      vertex   -3.161052e+02 -1.404357e+01 -1.495926e+01
      vertex   -3.161468e+02 -1.404357e+01 -1.475270e+01
      vertex   -3.235303e+02 -1.404357e+01 -2.738294e+01
    endloop
  endfacet
  facet normal 2.574271e-14 -1.000000e+00 -2.041819e-28
    outer loop
      vertex   -3.235303e+02 -1.404357e+01 -2.738294e+01
      vertex   -3.161468e+02 -1.404357e+01 -1.475270e+01
      vertex   -3.235303e+02 -1.404357e+01 -5.882943e+00
    endloop
  endfacet
  facet normal 3.007327e-14 -1.000000e+00 3.604890e-15
    outer loop
      vertex   -3.235303e+02 -1.404357e+01 -5.882943e+00
      vertex   -3.161468e+02 -1.404357e+01 -1.475270e+01
      vertex   -3.161719e+02 -1.404357e+01 -1.454349e+01
    endloop
  endfacet
  facet normal 5.551115e-15 2.103629e-28 1.000000e+00
    outer loop
      vertex   -3.035303e+02 -1.404357e+01 -5.882943e+00
      vertex   -3.035303e+02 -1.104357e+01 -5.882943e+00
      vertex   -3.235303e+02 -1.404357e+01 -5.882943e+00
    endloop
  endfacet
  facet normal 5.551115e-15 3.155444e-28 1.000000e+00
    outer loop
      vertex   -3.235303e+02 -1.404357e+01 -5.882943e+00
      vertex   -3.035303e+02 -1.104357e+01 -5.882943e+00
      vertex   -3.235303e+02 -1.104357e+01 -5.882943e+00
    endloop
  endfacet
  facet normal -1.000000e+00 -5.684342e-14 9.217852e-15
    outer loop
      vertex   -3.235303e+02 -1.104357e+01 -5.882943e+00
      vertex   -3.235303e+02 -1.104357e+01 -2.438294e+01
      vertex   -3.235303e+02 -1.404357e+01 -5.882943e+00
    endloop
  endfacet
  facet normal -1.000000e+00 -6.477506e-14 7.931640e-15
    outer loop
      vertex   -3.235303e+02 -1.404357e+01 -5.882943e+00
      vertex   -3.235303e+02 -1.104357e+01 -2.438294e+01
      vertex   -3.235303e+02 -1.404357e+01 -2.738294e+01
    endloop
  endfacet
  facet normal -1.000000e+00 -3.171982e-14 -2.512359e-14
    outer loop
      vertex   -3.235303e+02 -1.404357e+01 -2.738294e+01
      vertex   -3.235303e+02 -1.104357e+01 -2.438294e+01
      vertex   -3.235303e+02 1.642123e+01 -2.738294e+01
    endloop
  endfacet
  facet normal -1.000000e+00 -2.897556e-14 0.000000e+00
    outer loop
      vertex   -3.235303e+02 1.642123e+01 -2.738294e+01
      vertex   -3.235303e+02 -1.104357e+01 -2.438294e+01
      vertex   -3.235303e+02 1.642123e+01 -2.438294e+01
    endloop
  endfacet
endsolid
